<svg t="1609502312290" class="icon" viewBox="0 0 1024 1024" version="1.1" xmlns="http://www.w3.org/2000/svg" p-id="7985" width="16" height="16"><path d="M664.274824 435.621647c-99.388235-110.411294-99.388235-242.748235-99.388236-430.381176C255.879529 126.614588 333.221647 457.728 322.078118 568.018824 244.796235 501.880471 222.750118 347.316706 222.750118 347.316706 134.505412 391.529412 90.352941 501.880471 90.352941 590.064941a417.069176 417.069176 0 0 0 419.297883 408.395294 409.840941 409.840941 0 0 0 419.237647-400.384c0.120471-2.650353 0.120471-5.300706 0.12047-7.951059 0-132.517647-99.328-198.656-99.328-375.265882a216.907294 216.907294 0 0 0-165.406117 220.762353" fill="#F70808" p-id="7986"></path><path d="M498.567529 545.972706c143.480471 55.175529 110.411294 209.739294 110.411295 253.771294a217.148235 217.148235 0 0 0 44.15247-99.328c34.936471 25.901176 55.476706 66.921412 55.17553 110.411294a187.632941 187.632941 0 0 1-375.205648 0.120471c11.023059-99.388235 165.466353-176.609882 165.466353-264.975059" fill="#FCB71D" p-id="7987"></path></svg>
