<svg t="1609470398210" class="icon" viewBox="0 0 1024 1024" version="1.1" xmlns="http://www.w3.org/2000/svg" p-id="4465" width="16" height="16"><path d="M512 981.333c-23.467 0-42.667-19.2-42.667-42.666v-192C469.333 723.2 488.533 704 512 704s42.667 19.2 42.667 42.667v192c0 23.466-19.2 42.666-42.667 42.666z" fill="#FF9813" p-id="4466"></path><path d="M512 597.333C358.4 597.333 234.667 473.6 234.667 320S358.4 42.667 512 42.667 789.333 166.4 789.333 320 665.6 597.333 512 597.333zM512 128c-106.667 0-192 85.333-192 192s85.333 192 192 192 192-85.333 192-192-85.333-192-192-192z" fill="#4E4E4E" p-id="4467"></path><path d="M832 981.333H192c-70.4 0-128-57.6-128-128 0-8.533 0-19.2 2.133-27.733C106.667 642.133 268.8 512 458.667 512h108.8c187.733 0 352 130.133 390.4 313.6 14.933 68.267-27.734 136.533-98.134 153.6-8.533 2.133-19.2 2.133-27.733 2.133z m-373.333-384c-147.2 0-277.334 102.4-309.334 247.467-4.266 23.467 8.534 44.8 32 51.2H832c23.467 0 42.667-17.067 42.667-42.667v-10.666c-32-142.934-160-245.334-309.334-245.334H458.667z" fill="#4E4E4E" p-id="4468"></path></svg>
