<svg t="1603470006394" className="icon" viewBox="0 0 1024 1024"
     version="1.1" xmlns="http://www.w3.org/2000/svg" p-id="21885"
     width="24" height="24">
    <path
            d="M682.666667 568.888889H341.333333c-28.444444 0-56.888889-22.755556-56.888889-56.888889 0-28.444444 22.755556-56.888889 56.888889-56.888889h341.333334c28.444444 0 56.888889 22.755556 56.888889 56.888889s-22.755556 56.888889-56.888889 56.888889z"
            fill="#545B68" p-id="21886"></path>
    <path
            d="M512 967.111111c-250.311111 0-455.111111-204.8-455.111111-455.111111s204.8-455.111111 455.111111-455.111111c68.266667 0 136.533333 17.066667 199.111111 45.511111 28.444444 11.377778 39.822222 45.511111 28.444445 73.955556-11.377778 28.444444-45.511111 39.822222-73.955556 28.444444C614.4 182.044444 563.2 170.666667 512 170.666667 324.266667 170.666667 170.666667 324.266667 170.666667 512s153.6 341.333333 341.333333 341.333333 341.333333-153.6 341.333333-341.333333c0-22.755556 0-45.511111-5.688889-68.266667-5.688889-28.444444 11.377778-62.577778 45.511112-68.266666 28.444444-5.688889 62.577778 11.377778 68.266666 45.511111 0 28.444444 5.688889 62.577778 5.688889 91.022222 0 250.311111-204.8 455.111111-455.111111 455.111111z"
            fill="#545B68" p-id="21887"></path>
    <path
            d="M836.266667 335.644444c-17.066667 0-34.133333-5.688889-45.511111-22.755555-5.688889-11.377778-17.066667-17.066667-22.755556-28.444445-22.755556-22.755556-17.066667-56.888889 5.688889-79.644444s56.888889-17.066667 79.644444 5.688889c11.377778 11.377778 22.755556 22.755556 28.444445 39.822222 17.066667 22.755556 11.377778 62.577778-11.377778 79.644445-11.377778 0-22.755556 5.688889-34.133333 5.688888zM455.111111 682.666667V341.333333c0-28.444444 22.755556-56.888889 56.888889-56.888889 28.444444 0 56.888889 22.755556 56.888889 56.888889v341.333334c0 34.133333-22.755556 56.888889-56.888889 56.888889s-56.888889-22.755556-56.888889-56.888889z"
            fill="#545B68" p-id="21888"></path>
</svg>
