<svg t="1604765442694" class="icon" viewBox="0 0 1024 1024" version="1.1" xmlns="http://www.w3.org/2000/svg" p-id="8888" width="24" height="24"><path d="M393.43 97h237.14C794.28 97 927 229.72 927 393.43v237.14C927 794.28 794.28 927 630.57 927H393.43C229.72 927 97 794.28 97 630.57V393.43C97 229.72 229.72 97 393.43 97z" fill="#1296db" p-id="8889" data-spm-anchor-id="a313x.7781069.0.i10" class="selected"></path><path d="M486.17 319.93H346.93c-11.49-0.02-20.83 9.26-20.88 20.75v138.68c0.06 11.49 9.4 20.77 20.88 20.75h139.23c11.49 0.02 20.83-9.26 20.88-20.75V340.75c-0.06-11.49-9.4-20.77-20.88-20.75v-0.07z m214.05 213.26H560.98c-11.49-0.02-20.83 9.26-20.88 20.75v138.71c0.05 11.49 9.39 20.77 20.88 20.75h139.23c11.49 0.02 20.83-9.26 20.88-20.75V553.98c-0.06-11.49-9.4-20.77-20.88-20.75v-0.04z m31.49-160.16L619.2 313.85c-9.31-4.9-20.83-1.37-25.79 7.91L534 433.91c-4.9 9.27-1.35 20.76 7.92 25.66l0.06 0.03 112.52 59.18c9.32 4.91 20.85 1.36 25.8-7.93l59.39-112.11c4.9-9.25 1.38-20.72-7.88-25.63-0.04-0.02-0.08-0.04-0.11-0.06l0.01-0.02zM486.17 533.19H346.93c-11.49-0.02-20.83 9.26-20.88 20.75v138.71c0.06 11.49 9.4 20.77 20.88 20.75h139.23c11.49 0.02 20.83-9.26 20.88-20.75V553.98c-0.06-11.49-9.4-20.77-20.88-20.75v-0.04z" fill="#FFFFFF" p-id="8890"></path></svg>
