<svg t="1609672161184" class="icon" viewBox="0 0 1024 1024" version="1.1" xmlns="http://www.w3.org/2000/svg" p-id="3837" width="18" height="18"><path d="M512 512m-512 0a512 512 0 1 0 1024 0 512 512 0 1 0-1024 0Z" fill="#008DE2" p-id="3838"></path><path d="M261.688889 580.266667h56.888889V443.733333h-56.888889v136.533334z m185.014044 45.511111H386.844444s8.726756 77.641956 72.146489 159.220622c0 0 55.102578 2.366578 63.431111-20.104533 0 0 5.950578-14.973156-11.889777-34.281245-5.552356-9.068089-55.5008-51.234133-63.829334-104.834844zM656.725333 284.9792C552.300089 413.138489 352.711111 420.670578 352.711111 420.670578v170.609778C588.913778 602.396444 657.487644 694.044444 657.487644 694.044444c91.318044-23.404089 81.692444-189.656178 81.692445-189.656177 6.929067-241.629867-82.466133-219.409067-82.466133-219.409067z" fill="#FFFFFF" p-id="3839"></path></svg>
