<svg t="1608362772806" class="icon" viewBox="0 0 1024 1024" version="1.1" xmlns="http://www.w3.org/2000/svg" p-id="17841" width="16" height="16"><path d="M512 993.28c261.12 0 481.28-215.04 481.28-481.28 0-51.2-10.24-102.4-20.48-148.48-66.56-194.56-245.76-332.8-460.8-332.8C250.88 30.72 30.72 245.76 30.72 512s220.16 481.28 481.28 481.28z" fill="#515151" p-id="17842"></path><path d="M706.56 527.36c0 128-87.04 215.04-194.56 215.04-25.6 0-46.08-5.12-66.56-15.36-81.92-25.6-133.12-112.64-133.12-204.8 0-92.16 71.68-174.08 153.6-174.08h92.16c87.04 5.12 148.48 76.8 148.48 179.2 0-5.12 0 0 0 0zM512 230.4c51.2 0 92.16 46.08 102.4 97.28-15.36-5.12-35.84-15.36-51.2-15.36H465.92c-20.48 0-35.84 5.12-51.2 5.12 5.12-46.08 46.08-87.04 97.28-87.04z m225.28 384c5.12-30.72 15.36-61.44 15.36-87.04v-5.12c0-15.36 0-25.6-5.12-40.96 35.84-20.48 40.96-71.68 46.08-143.36 0-5.12-5.12-20.48-20.48-20.48-5.12 0-20.48 5.12-20.48 20.48-5.12 66.56-5.12 92.16-15.36 107.52-15.36-46.08-46.08-76.8-87.04-97.28v-15.36c0-87.04-66.56-153.6-143.36-153.6S373.76 256 373.76 332.8v5.12C337.92 358.4 307.2 399.36 286.72 435.2c-5.12-5.12-5.12-35.84-10.24-102.4 0-15.36-15.36-20.48-20.48-20.48-15.36 0-20.48 10.24-20.48 20.48 5.12 76.8 5.12 128 46.08 153.6-5.12 10.24-5.12 25.6-5.12 35.84 0 30.72 5.12 61.44 15.36 87.04-46.08 20.48-46.08 71.68-51.2 153.6 0 15.36 5.12 25.6 20.48 25.6 5.12 0 20.48-5.12 20.48-20.48 5.12-97.28 15.36-112.64 25.6-117.76 25.6 61.44 71.68 97.28 133.12 128 25.6 10.24 51.2 15.36 76.8 15.36 92.16 0 168.96-61.44 209.92-138.24 20.48 5.12 25.6 20.48 25.6 117.76 0 15.36 15.36 20.48 20.48 20.48 15.36 0 20.48-15.36 20.48-20.48-10.24-87.04-10.24-138.24-56.32-158.72z" fill="#FFFFFF" p-id="17843"></path><path d="M512 588.8c-15.36 0-25.6-5.12-25.6-15.36V404.48c0-15.36 10.24-20.48 25.6-20.48s25.6 5.12 25.6 20.48v168.96s-10.24 15.36-25.6 15.36zM486.4 665.6c0 15.36 10.24 25.6 25.6 25.6s25.6-10.24 25.6-25.6-10.24-25.6-25.6-25.6-25.6 10.24-25.6 25.6z" fill="#FFFFFF" p-id="17844"></path></svg>
