<?xml version="1.0" standalone="no"?><!DOCTYPE svg PUBLIC "-//W3C//DTD SVG 1.1//EN" "http://www.w3.org/Graphics/SVG/1.1/DTD/svg11.dtd"><svg t="1598517921691" class="icon" viewBox="0 0 1024 1024" version="1.1" xmlns="http://www.w3.org/2000/svg" p-id="8210" xmlns:xlink="http://www.w3.org/1999/xlink" width="18" height="18"><defs><style type="text/css"></style></defs><path d="M905.32 270.2H322.344v-6.424a19.728 19.728 0 0 0-19.728-19.728h-14.584v-12.872a19.728 19.728 0 0 0-19.728-19.728h-17.16a19.728 19.728 0 0 0-19.728 19.728v12.872h-18.016a19.728 19.728 0 0 0-19.728 19.728v6.424H161.84a69.448 69.448 0 0 0-69.448 69.448v449.36a69.448 69.448 0 0 0 69.448 69.448h743.488a69.448 69.448 0 0 0 69.448-69.448v-449.36a69.456 69.456 0 0 0-69.456-69.448z" fill="#E6E7E8" p-id="8211"></path><path d="M252.872 206.144V193.28a19.728 19.728 0 0 0-19.728-19.728h-17.16a19.728 19.728 0 0 0-19.728 19.728v12.872h56.616z" fill="#FA759E" p-id="8212"></path><path d="M287.192 232.296v-6.424a19.728 19.728 0 0 0-19.728-19.728H178.24a19.728 19.728 0 0 0-19.728 19.728v6.424h128.68z" fill="#0089EF" p-id="8213"></path><path d="M870.168 232.296H126.68a69.448 69.448 0 0 0-69.448 69.448v449.36a69.448 69.448 0 0 0 69.448 69.448h743.488a69.448 69.448 0 0 0 69.448-69.448v-449.36a69.448 69.448 0 0 0-69.448-69.448z" fill="#6DC9F7" p-id="8214"></path><path d="M370.448 414.184H57.232v39.968h298.68a269.192 269.192 0 0 1 14.536-39.968zM863.328 414.184a268.864 268.864 0 0 1 14.536 39.968h61.744v-39.968h-76.28z" fill="#FFD7E5" p-id="8215"></path><path d="M616.888 526.424m-270.808 0a270.808 270.808 0 1 0 541.616 0 270.808 270.808 0 1 0-541.616 0Z" fill="#FFFFFF" p-id="8216"></path><path d="M359.807158 586.801751a270.808 270.808 0 1 0 534.629134-86.715515 270.808 270.808 0 1 0-534.629134 86.715515Z" fill="#0089EF" p-id="8217"></path><path d="M418.054821 573.343513a204.32 204.32 0 1 0 397.702773-93.91035 204.32 204.32 0 1 0-397.702773 93.91035Z" fill="#6DC9F7" p-id="8218"></path><path d="M870.168 224.296H295.032c-0.84-14.544-12.824-26.152-27.568-26.152h-6.584v-4.864a27.76 27.76 0 0 0-27.736-27.728h-17.16a27.76 27.76 0 0 0-27.728 27.728v4.864H178.24c-14.752 0-26.736 11.608-27.568 26.152h-23.984c-42.704 0-77.448 34.744-77.448 77.448v449.36c0 42.704 34.744 77.448 77.448 77.448h743.488c42.712 0 77.456-34.744 77.456-77.448v-449.36c-0.016-42.704-34.76-77.448-77.464-77.448zM204.256 193.28c0-6.472 5.264-11.728 11.728-11.728h17.16c6.472 0 11.736 5.264 11.736 11.728v4.864h-40.624v-4.864z m-26.016 20.864h89.224c5.936 0 10.848 4.424 11.624 10.152H166.616a11.736 11.736 0 0 1 11.624-10.152z m753.376 536.96c0 33.88-27.568 61.448-61.456 61.448H126.68c-33.88 0-61.448-27.56-61.448-61.448v-449.36c0-33.88 27.568-61.448 61.448-61.448h743.488c33.88 0 61.456 27.56 61.456 61.448v449.36z" fill="#3A2C60" p-id="8219"></path><path d="M616.888 247.616c-153.736 0-278.808 125.072-278.808 278.808s125.072 278.808 278.808 278.808 278.808-125.072 278.808-278.808-125.072-278.808-278.808-278.808z m0 541.616c-144.912 0-262.808-117.896-262.808-262.808s117.896-262.808 262.808-262.808 262.808 117.896 262.808 262.808-117.888 262.808-262.808 262.808z" fill="#3A2C60" p-id="8220"></path><path d="M798.496 451.704a195.144 195.144 0 0 1 12.224 43.328 8 8 0 1 0 15.792-2.544 211.088 211.088 0 0 0-13.224-46.88 8 8 0 1 0-14.792 6.096z" fill="#3A2C60" p-id="8221"></path><path d="M813.208 526.424c0 108.248-88.072 196.32-196.32 196.32-108.256 0-196.328-88.072-196.328-196.32 0-108.256 88.072-196.328 196.328-196.328 68.664 0 131.184 34.936 167.248 93.464a8 8 0 1 0 13.624-8.384c-39.008-63.288-106.616-101.072-180.872-101.072-117.072 0-212.328 95.248-212.328 212.328s95.248 212.32 212.328 212.32c117.072 0 212.32-95.248 212.32-212.32a8 8 0 0 0-16-0.008z" fill="#3A2C60" p-id="8222"></path><path d="M616.888 526.424m-155.672 0a155.672 155.672 0 1 0 311.344 0 155.672 155.672 0 1 0-311.344 0Z" fill="#D4FBFF" p-id="8223"></path><path d="M542.730125 543.903684a76.216 76.216 0 1 0 148.352166-35.030693 76.216 76.216 0 1 0-148.352166 35.030693Z" fill="#0089EF" p-id="8224"></path><path d="M652.424 479.24a14.52 14.52 0 1 0 0 29.04 14.52 14.52 0 0 0 0-29.04zM341.32 281.32H241.232a15.32 15.32 0 0 0-15.32 15.32v11.064c0 8.464 6.856 15.32 15.32 15.32h100.088a15.32 15.32 0 0 0 15.32-15.32V296.64a15.328 15.328 0 0 0-15.32-15.32z" fill="#FFFFFF" p-id="8225"></path><path d="M188.464 304.464m-17.704 0a17.704 17.704 0 1 0 35.408 0 17.704 17.704 0 1 0-35.408 0Z" fill="#FA759E" p-id="8226"></path></svg>
