<svg t="1609064113777" class="icon" viewBox="0 0 1030 1024" version="1.1" xmlns="http://www.w3.org/2000/svg" p-id="6859" width="16" height="16"><path d="M502.690909 0c-273.066667 0-496.484848 223.418182-496.484848 496.484848s223.418182 496.484848 496.484848 496.484849 496.484848-223.418182 496.484849-496.484849-223.418182-496.484848-496.484849-496.484848zM304.09697 763.345455l-43.442425 6.20606s-6.206061 0-6.20606-6.20606V223.418182s0-6.206061 6.20606-6.206061h37.236364s6.206061 0 6.206061 6.206061v539.927273z m453.042424-43.442425c0 24.824242-24.824242 49.648485-49.648485 49.648485h-372.363636c-6.206061 0-12.412121-6.206061-12.412121-12.412121V235.830303c6.206061-12.412121 18.618182-18.618182 24.824242-18.618182h359.951515l-124.121212 217.212121 68.266667 37.236364 105.50303-186.181818v434.424242z m0 0" fill="#3CBFFD" p-id="6860"></path><path d="M570.957576 533.721212l74.472727-55.854545-68.266667-37.236364-6.20606 93.090909z m0 0" fill="#3CBFFD" p-id="6861"></path></svg>
