<svg t="1608217000286" class="icon" viewBox="0 0 1024 1024" version="1.1" xmlns="http://www.w3.org/2000/svg" p-id="1621" width="16" height="16"><path d="M1023.582815 476.918519a75.245037 75.245037 0 0 0-75.169185-75.169186H770.275556v-148.669629a92.577185 92.577185 0 0 0-92.53926-92.53926h-24.803555a92.577185 92.577185 0 0 0-92.501334 92.53926v148.669629H378.500741c-41.415111 0-75.093333 33.678222-75.093334 75.169186a75.093333 75.093333 0 0 0 53.43763 71.566222v262.219852c0 33.336889 27.041185 60.378074 60.378074 60.378074h497.208889c33.298963 0 60.340148-27.041185 60.340148-60.378074v-263.698963a75.017481 75.017481 0 0 0 48.810667-70.087111zM606.890667 253.079704c0-25.41037 20.66963-46.042074 46.042074-46.042074h24.841481c25.372444 0 46.042074 20.66963 46.042074 46.042074v148.669629h-116.925629v-148.669629z m307.503407 571.543703h-76.686222v-95.232a23.172741 23.172741 0 1 0-46.421333 0v95.232H689.114074v-95.232a23.172741 23.172741 0 1 0-46.383407 0v95.232h-102.286223v-95.232a23.172741 23.172741 0 1 0-46.421333 0v95.232h-76.762074a13.956741 13.956741 0 0 1-13.918815-13.918814v-258.692741h525.008593v258.654815a13.956741 13.956741 0 0 1-13.918815 13.95674z m34.133333-319.10874H378.500741a28.634074 28.634074 0 0 1 0-57.268148h569.912889a28.634074 28.634074 0 1 1 0.075851 57.268148z" fill="#ffffff" fill-opacity=".5" p-id="1622"></path></svg>
