<svg t="1609642016112" class="icon" viewBox="0 0 1024 1024" version="1.1" xmlns="http://www.w3.org/2000/svg" p-id="17412" width="16" height="16"><path d="M859.2 441.6v481.6H377.6V441.6h481.6m0-68.8H377.6c-38.4 0-68.8 30.4-68.8 68.8v481.6c0 38.4 30.4 68.8 68.8 68.8h481.6c38.4 0 68.8-30.4 68.8-68.8V441.6c0-38.4-30.4-68.8-68.8-68.8z m0 0" fill="#333333" p-id="17413"></path><path d="M484.8 515.2h275.2c22.4 0 35.2 11.2 35.2 35.2s-11.2 35.2-35.2 35.2H484.8c-22.4 0-35.2-11.2-35.2-35.2s12.8-35.2 35.2-35.2z m0 0M484.8 654.4h275.2c22.4 0 35.2 11.2 35.2 35.2 0 22.4-11.2 35.2-35.2 35.2H484.8c-22.4 0-35.2-11.2-35.2-35.2 0-24 12.8-35.2 35.2-35.2z m0 0" fill="#333333" p-id="17414"></path><path d="M484.8 784h182.4c22.4 0 35.2 11.2 35.2 35.2 0 22.4-11.2 35.2-35.2 35.2H484.8c-22.4 0-35.2-11.2-35.2-35.2 0-24 12.8-35.2 35.2-35.2z m0 0M100.8 219.2v601.6c0 38.4 30.4 68.8 68.8 68.8h67.2c19.2 0 35.2-16 35.2-35.2 0-19.2-16-35.2-35.2-35.2h-67.2V219.2H240c19.2 0 35.2-16 35.2-35.2 0-19.2-16-35.2-35.2-35.2h-70.4c-38.4 1.6-68.8 32-68.8 70.4z m0 0M356.8 150.4h248c22.4 0 35.2 11.2 35.2 35.2 0 22.4-11.2 35.2-35.2 35.2H356.8c-22.4 0-35.2-11.2-35.2-35.2 0-24 11.2-35.2 35.2-35.2z m0 0M409.6 27.2h139.2c22.4 0 35.2 11.2 35.2 35.2 0 22.4-11.2 35.2-35.2 35.2h-139.2c-22.4 0-35.2-11.2-35.2-35.2 1.6-22.4 12.8-35.2 35.2-35.2z m0 0" fill="#333333" p-id="17415"></path><path d="M686.4 184c0 19.2 16 35.2 35.2 35.2h70.4v81.6c0 19.2 16 35.2 35.2 35.2 19.2 0 35.2-16 35.2-35.2v-81.6c0-38.4-30.4-68.8-68.8-68.8H720c-19.2 0-33.6 14.4-33.6 33.6z m0 0" fill="#333333" p-id="17416"></path></svg>
