<svg t="1609470478050" class="icon" viewBox="0 0 1365 1024" version="1.1" xmlns="http://www.w3.org/2000/svg" p-id="5456" width="16" height="16"><path d="M830.29195 1024h-486.39919C153.941077 1024 0 871.253588 0 682.667236c0-161.450398 112.981145-296.788839 264.788892-332.287447A429.225951 429.225951 0 0 1 687.78552 0.001707 429.225951 429.225951 0 0 1 1109.331484 342.785135a388.01002 388.01002 0 0 0-360.959398 176.639706c-14.079977 23.80796-11.349314 42.581262 8.106653 56.319906 29.269285 20.565299 59.9039-13.141311 59.9039-13.141311 39.253268-48.469253 124.927792 5.802657 256.938239 162.730395l2.730662 298.666169H830.29195z" fill="#666666" p-id="5457"></path><path d="M767.99872 725.333831a298.666169 298.666169 0 1 0 597.332338 0 298.666169 298.666169 0 0 0-597.332338 0z" fill="#666666" p-id="5458"></path></svg>
