<svg t="1603375965274" class="icon" viewBox="0 0 1024 1024" version="1.1" xmlns="http://www.w3.org/2000/svg" p-id="3171" width="24" height="24"><path d="M832.19 128H432.84c-35.43 0-64.14 28.72-64.14 64.14V320h64V192.14v-0.06c0.02-0.03 0.06-0.06 0.09-0.09h399.47c0.03 0.02 0.06 0.06 0.09 0.09v399.48c-0.02 0.03-0.06 0.06-0.09 0.09H703.33v64h128.86c35.43 0 64.14-28.72 64.14-64.14V192.14c0-35.42-28.72-64.14-64.14-64.14z" fill="#FFEB76" p-id="3172"></path><path d="M592.19 368H192.84c-35.43 0-64.14 28.72-64.14 64.14V831.5c0 35.43 28.72 64.14 64.14 64.14h399.35c35.43 0 64.14-28.72 64.14-64.14V432.14c0-35.42-28.72-64.14-64.14-64.14zM512 724H271.99v-64H512v64z m0-120H271.99v-64H512v64z" fill="#FFEB76" p-id="3173"></path><path d="M592.19 432h0.06c0.03 0.02 0.06 0.06 0.09 0.09v399.47c-0.02 0.03-0.06 0.06-0.09 0.09H192.78c-0.03-0.02-0.06-0.06-0.09-0.09V432.14v-0.06c0.02-0.03 0.06-0.06 0.09-0.09h399.41m0-63.99H192.84c-35.43 0-64.14 28.72-64.14 64.14V831.5c0 35.43 28.72 64.14 64.14 64.14h399.35c35.43 0 64.14-28.72 64.14-64.14V432.14c0-35.42-28.72-64.14-64.14-64.14z" fill="#333333" p-id="3174"></path><path d="M512 540H271.99v64H512v-64zM512 660H271.99v64H512v-64zM832.19 128H432.84c-35.43 0-64.14 28.72-64.14 64.14V320h64V192.14v-0.06c0.02-0.03 0.06-0.06 0.09-0.09h399.47c0.03 0.02 0.06 0.06 0.09 0.09v399.48c-0.02 0.03-0.06 0.06-0.09 0.09H703.33v64h128.86c35.43 0 64.14-28.72 64.14-64.14V192.14c0-35.42-28.72-64.14-64.14-64.14z" fill="#333333" p-id="3175"></path></svg>
