<svg t="1608377743817" class="icon" viewBox="0 0 1024 1024" version="1.1" xmlns="http://www.w3.org/2000/svg" p-id="29048" width="16" height="16"><path d="M998.260364 545.163636a104.541091 104.541091 0 0 0-6.516364-21.317818l-0.186182-0.395636-0.186182-0.418909a169.704727 169.704727 0 0 0-28.648727-43.310546c-12.637091-14.033455-24.762182-24.064-37.12-30.72a120.692364 120.692364 0 0 0-20.433454-8.331636 107.380364 107.380364 0 0 0-30.161455-4.608c-9.309091 0-18.688 1.442909-27.927273 4.305454a93.789091 93.789091 0 0 0-30.952727 16.733091l-0.558545 0.465455-0.581819 0.465454c-5.608727 4.840727-11.077818 9.844364-16.360727 15.01091-5.515636 5.352727-10.170182 9.821091-14.08 13.521454l-4.049454 3.863273-0.139637-0.139637-2.955636 3.025455-31.115637 29.579636 1.210182 1.28-2.490182 2.606546-109.056 112.477091-41.099636 42.402909-37.003636 38.213818c-9.588364 9.797818-19.083636 19.665455-28.485818 29.626182l-12.218182 12.8-1.722182 1.815273c-7.051636 7.284364-12.8 14.382545-17.198546 21.410909-3.816727 6.074182-7.168 12.450909-10.007272 19.037091a171.752727 171.752727 0 0 0-8.936728 23.272727 905.076364 905.076364 0 0 0-8.843636 29.114182c-2.816 9.751273-5.585455 19.502545-8.285091 29.277091-3.351273 12.334545-5.236364 20.968727-6.237091 28.206545-3.444364 23.133091 0.907636 43.147636 13.032728 58.717091 7.284364 9.169455 23.156364 23.738182 51.665454 23.738182 3.537455 0 7.261091-0.209455 11.077818-0.651637l1.024-0.116363 1.024-0.162909a265.309091 265.309091 0 0 0 25.018182-5.748364c9.541818-2.583273 19.712-5.678545 31.069091-9.425455 10.24-3.421091 20.48-7.051636 30.580364-10.868363 10.519273-4.049455 18.525091-7.493818 24.715636-10.565818a114.734545 114.734545 0 0 0 23.156364-14.429091 261.352727 261.352727 0 0 0 28.974545-26.600728c7.330909-7.586909 16.337455-16.989091 27.229091-28.322909 11.822545-12.381091 23.784727-24.669091 35.863273-36.794181l0.325818-0.302546 0.302545-0.325818 40.587637-42.356364 108.916363-112.314182 35.188364-36.282181-0.116364-0.116364 0.395637-0.372364c3.444364-3.118545 6.795636-6.330182 10.053818-9.658181 2.164364-2.234182 4.724364-4.770909 7.610182-7.656728 3.537455-3.490909 7.447273-7.377455 11.752727-11.822545l0.744727-0.744727 0.698182-0.791273c8.029091-8.983273 14.08-18.920727 18.013091-29.556364 3.84-10.24 5.818182-21.061818 5.818182-31.976727 0-7.982545-0.791273-15.941818-2.373818-23.761455z m-232.192 228.864l-40.610909 42.356364c-12.288 12.334545-24.459636 24.832-36.491637 37.445818-10.798545 11.287273-19.781818 20.619636-26.88 27.950546-7.121455 7.307636-11.357091 11.543273-12.706909 12.497454-3.723636 3.490909-7.633455 6.795636-11.659636 9.937455-4.189091 3.374545-8.773818 6.237091-13.684364 8.471272-4.747636 2.397091-11.636364 5.352727-20.782545 8.86691-9.495273 3.584-19.060364 6.981818-28.672 10.193454-9.378909 3.141818-18.850909 6.004364-28.416 8.610909a221.556364 221.556364 0 0 1-20.061091 4.724364c-1.815273 0.232727-3.653818 0.349091-5.492364 0.349091-6.120727 0-10.379636-1.512727-12.753454-4.514909-3.025455-3.886545-3.863273-10.333091-2.536728-19.362909a184.785455 184.785455 0 0 1 4.794182-21.224728c2.56-9.262545 5.236364-18.804364 8.145455-28.741818 2.629818-9.216 5.399273-18.385455 8.378181-27.485091 2.676364-8.378182 4.887273-14.126545 6.586182-17.291636 2.001455-4.864 4.305455-9.309091 6.842182-13.312 2.536727-4.026182 6.167273-8.448 10.938182-13.335273 2.001455-2.141091 6.749091-7.074909 14.196364-14.917818 9.239273-9.774545 18.525091-19.432727 27.904-29.044364l37.003636-38.190545 41.099636-42.402909 109.056-112.500364 94.882909 98.373818-109.079272 112.546909z m182.132363-191.534545a41.076364 41.076364 0 0 1-8.145454 13.079273c-4.026182 4.189091-7.68 7.796364-10.891637 11.008-3.188364 3.118545-5.957818 5.934545-8.354909 8.378181a158.301091 158.301091 0 0 1-7.586909 7.307637l-94.882909-97.838546c4.072727-3.84 8.890182-8.471273 14.429091-13.893818 5.585455-5.399273 10.263273-9.658182 13.963636-12.8 4.747636-3.793455 9.681455-6.539636 14.708364-8.098909 4.840727-1.536 9.914182-2.257455 14.987636-2.117818 4.887273 0.232727 9.658182 0.954182 14.196364 2.327273 4.119273 1.256727 8.098909 2.839273 11.938909 4.770909 7.098182 3.84 14.987636 10.519273 23.598546 20.107636 8.657455 9.588364 15.290182 19.618909 20.037818 30.091636 1.373091 3.165091 2.443636 6.818909 3.258182 11.008 0.861091 4.189091 1.28 8.517818 1.28 13.102546 0 4.654545-0.884364 9.239273-2.536728 13.568z"  p-id="29049"></path><path d="M366.266182 940.8H155.554909c-36.212364 0-65.652364-30.370909-65.652364-67.723636V150.923636c0-37.352727 29.44-67.723636 65.629091-67.723636h641.629091c36.212364 0 65.629091 30.370909 65.629091 67.723636v183.808c0 18.944 14.894545 34.304 33.28 34.304 18.385455 0 33.28-15.36 33.28-34.304V150.923636c0-75.170909-59.322182-136.308364-132.189091-136.308363H155.531636C82.711273 14.615273 23.389091 75.776 23.389091 150.923636v722.152728c0 75.170909 59.298909 136.331636 132.189091 136.331636h210.711273c18.385455 0 33.28-15.36 33.28-34.304 0-18.967273-14.894545-34.304-33.28-34.304z" p-id="29050"></path><path d="M696.855273 273.594182c0-18.944-14.894545-34.304-33.28-34.304H289.140364c-18.385455 0-33.28 15.36-33.28 34.304s14.894545 34.304 33.28 34.304h374.458181c18.338909 0 33.256727-15.36 33.256728-34.304z m-222.021818 188.020363h-185.693091c-18.362182 0-33.256727 15.36-33.256728 34.304s14.894545 34.280727 33.28 34.280728h185.669819c18.362182 0 33.256727-15.36 33.256727-34.280728 0-18.967273-14.894545-34.304-33.28-34.304z" p-id="29051"></path></svg>
