<svg t="1593352238768" viewBox="0 0 1102 1024" version="1.1"
     xmlns="http://www.w3.org/2000/svg" p-id="6257" width="16" height="16"><path
        d="M512 630.153846h78.769231a39.384615 39.384615 0 0 0 0-78.769231h-78.769231a39.384615 39.384615 0 0 0 0 78.769231z m0 157.538462h78.769231a39.384615 39.384615 0 1 0 0-78.769231h-78.769231a39.384615 39.384615 0 1 0 0 78.769231zM945.230769 78.769231h-157.538461V39.384615a39.384615 39.384615 0 1 0-78.769231 0V78.769231H393.846154V39.384615a39.384615 39.384615 0 1 0-78.769231 0V78.769231H157.538462a157.538462 157.538462 0 0 0-157.538462 157.538461v630.153846a157.538462 157.538462 0 0 0 157.538462 157.538462h787.692307a157.538462 157.538462 0 0 0 157.538462-157.538462V236.307692a157.538462 157.538462 0 0 0-157.538462-157.538461z m78.769231 787.692307a78.769231 78.769231 0 0 1-78.769231 78.769231H157.538462a78.769231 78.769231 0 0 1-78.769231-78.769231V393.846154h945.230769z m0-551.384615H78.769231V236.307692a78.769231 78.769231 0 0 1 78.769231-78.76923h157.538461v39.384615a39.384615 39.384615 0 1 0 78.769231 0V157.538462h315.076923v39.384615a39.384615 39.384615 0 1 0 78.769231 0V157.538462h157.538461a78.769231 78.769231 0 0 1 78.769231 78.76923z m-748.307692 472.615385h78.76923a39.384615 39.384615 0 1 0 0-78.769231h-78.76923a39.384615 39.384615 0 0 0 0 78.769231z m472.615384-157.538462h78.769231a39.384615 39.384615 0 0 0 0-78.769231h-78.769231a39.384615 39.384615 0 0 0 0 78.769231z m-472.615384 0h78.76923a39.384615 39.384615 0 0 0 0-78.769231h-78.76923a39.384615 39.384615 0 0 0 0 78.769231z m472.615384 157.538462h78.769231a39.384615 39.384615 0 0 0 0-78.769231h-78.769231a39.384615 39.384615 0 0 0 0 78.769231z m0 0"
        fill="#515151" p-id="6258"></path></svg>