<svg t="1605887093926" class="icon" viewBox="0 0 1024 1024" version="1.1" xmlns="http://www.w3.org/2000/svg" p-id="4794" width="24" height="24"><path d="M575.061584 283.777126c25.524927 0 45.043988 19.519062 45.043988 45.043988v480.469209c0 25.524927-19.519062 45.043988-45.043988 45.043988H273.266862c-25.524927 0-45.043988-19.519062-45.043988-45.043988v-480.469209c0-25.524927 19.519062-45.043988 45.043988-45.043988h301.794722m0-45.043988H273.266862c-49.548387 0-90.087977 40.539589-90.087976 90.087976v480.469209c0 49.548387 40.539589 90.087977 90.087976 90.087976h300.293255c49.548387 0 90.087977-40.539589 90.087977-90.087976v-480.469209c1.501466-49.548387-39.038123-90.087977-88.58651-90.087976z" fill="#333333" p-id="4795"></path><path d="M566.052786 403.894428H282.27566c-12.01173 0-22.521994-10.510264-22.521994-22.521994s10.510264-22.521994 22.521994-22.521994h282.27566c12.01173 0 22.521994 10.510264 22.521994 22.521994s-9.008798 22.521994-21.020528 22.521994z" fill="#333333" p-id="4796"></path><path d="M566.052786 525.513196H282.27566c-12.01173 0-22.521994-10.510264-22.521994-22.521994s10.510264-22.521994 22.521994-22.521994h282.27566c12.01173 0 22.521994 10.510264 22.521994 22.521994s-9.008798 22.521994-21.020528 22.521994z" fill="#FFDA00" p-id="4797"></path><path d="M566.052786 647.131965H282.27566c-12.01173 0-22.521994-10.510264-22.521994-22.521994s10.510264-22.521994 22.521994-22.521994h282.27566c12.01173 0 22.521994 10.510264 22.521994 22.521994s-9.008798 22.521994-21.020528 22.521994zM566.052786 770.252199H282.27566c-12.01173 0-22.521994-10.510264-22.521994-22.521994s10.510264-22.521994 22.521994-22.521994h282.27566c12.01173 0 22.521994 10.510264 22.521994 22.521994s-9.008798 22.521994-21.020528 22.521994z" fill="#333333" p-id="4798"></path><path d="M755.237537 148.645161H453.442815c-49.548387 0-90.087977 40.539589-90.087976 90.087977h45.043988c0-25.524927 19.519062-45.043988 45.043988-45.043988h300.293255c25.524927 0 45.043988 19.519062 45.043989 45.043988v480.469208c0 25.524927-19.519062 45.043988-45.043989 45.043988h-90.087976v45.043989h90.087976c49.548387 0 90.087977-40.539589 90.087977-90.087977v-480.469208c1.501466-49.548387-39.038123-90.087977-88.58651-90.087977z" fill="#333333" p-id="4799"></path></svg>
