<svg t="1608379530215" class="icon" viewBox="0 0 1024 1024" version="1.1" xmlns="http://www.w3.org/2000/svg" width="16" height="16"><path d="M519.460738 0a193.459909 193.459909 0 0 0-193.395913 186.868321H81.792092a49.212924 49.212924 0 1 0 0 98.23386h54.3966v550.749578c0 103.35354 70.267608 187.828261 156.982189 187.828261h442.340354c86.71458 0 156.982189-83.962752 156.982188-187.828261V285.614149h49.276921a49.212924 49.212924 0 1 0 0-98.297856h-229.361665A192.819949 192.819949 0 0 0 519.460738 0z m-101.11368 186.868321a101.11368 101.11368 0 0 1 101.11368-94.714081c53.884632 0 97.529904 41.405412 100.601712 94.714081H418.411054zM293.170881 931.461784c-30.71808 0-64.63596-39.35754-64.63596-95.674021V285.614149h571.612274v550.749578c0 56.31648-33.91788 95.67402-64.63596 95.674021H293.170881v-0.511968z"  p-id="30794"></path><path d="M369.838089 784.846947c20.990688 0 38.141616-20.862696 38.141616-46.973064V470.050622c0-26.046372-17.150928-46.909068-38.141616-46.909068-20.990688 0-38.205612 20.862696-38.205612 46.909068v267.823261c0 26.110368 16.702956 46.973064 38.205612 46.973064z m138.359353 0c20.990688 0 38.205612-20.862696 38.205612-46.973064V470.050622c0-26.046372-17.214924-46.909068-38.205612-46.909068-20.990688 0-38.141616 20.862696-38.141616 46.909068v267.823261c0 26.110368 17.150928 46.973064 38.141616 46.973064z m145.526904 0c20.990688 0 38.205612-20.862696 38.205613-46.973064V470.050622c0-26.046372-17.214924-46.909068-38.205613-46.909068-20.990688 0-38.141616 20.862696-38.141616 46.909068v267.823261c0 26.110368 16.63896 46.973064 38.141616 46.973064z"  p-id="30795"></path></svg>
