<svg t="1605795735055" class="icon" viewBox="0 0 1024 1024" version="1.1" xmlns="http://www.w3.org/2000/svg" p-id="3808" width="24" height="24"><path d="M663.25 1023.12H254.44A126.48 126.48 0 0 1 128.1 896.78V127.56A127.71 127.71 0 0 1 255.66 0H770.1a125.93 125.93 0 0 1 125.8 125.79v672.8zM255.66 64A63.63 63.63 0 0 0 192.1 127.56v769.22a62.41 62.41 0 0 0 62.34 62.34h383L831.9 771.41V125.79A61.86 61.86 0 0 0 770.1 64z" fill="#1296db" p-id="3809"></path><path d="M735.65 256.15H287.84a32 32 0 0 1 0-64h447.81a32 32 0 0 1 0 64zM735.65 447.82H286.84a32 32 0 0 1 0-64h448.81a32 32 0 0 1 0 64zM735.65 640.17H286.84a32 32 0 0 1 0-64h448.81a32 32 0 1 1 0 64zM479.47 832.14H287.84a32 32 0 0 1 0-64h191.63a32 32 0 0 1 0 64zM639.78 1024h-64V769.14h269.11v64H639.78V1024z" fill="#1296db" p-id="3810"></path></svg>
