<svg t="1609561414087" class="icon" viewBox="0 0 1024 1024" version="1.1" xmlns="http://www.w3.org/2000/svg" p-id="5527" width="16" height="16"><path d="M510.661 511.594m-505.467 0a505.467 505.467 0 1 0 1010.934 0 505.467 505.467 0 1 0-1010.934 0Z" fill="#32607A" p-id="5528"></path><path d="M511.798 82.283c-59.199 0-115.843 11.568-169.875 34.625-53.946 23.059-100.534 54.11-139.617 93.147-39.039 39.04-70.088 85.634-93.145 139.622-23.101 54.069-34.669 110.675-34.669 169.91 0 60.551 11.728 117.802 35.147 171.827 23.41 53.985 55.931 101.176 97.63 141.564h609.057c41.701-40.394 74.221-87.617 97.631-141.564 23.456-54.068 35.148-111.276 35.148-171.827 0-59.192-11.57-115.841-34.626-169.91-23.058-53.945-54.069-100.541-93.188-139.622-38.998-39.037-85.555-70.088-139.656-93.147-53.955-23.057-110.603-34.625-169.837-34.625z m293.009 704.798H218.835C150.968 712.313 117.02 624.269 117.02 522.836c0-71.253 17.707-137.189 52.962-197.894 35.29-60.659 83.267-108.64 143.921-143.925 60.666-35.211 126.641-52.879 197.895-52.879 71.256 0 137.231 17.668 197.896 52.879 60.615 35.334 108.632 83.266 143.926 143.925 35.295 60.659 52.962 126.636 52.962 197.894-0.044 101.434-33.998 189.477-101.775 264.245zM513.748 521.538L379.056 371.221l75.136 183.551c-12.995 23.415-12.601 46.514 1.031 69.29 9.702 15.625 23.696 25.567 41.944 29.778 18.169 4.175 35.107 1.275 50.733-8.785 15.582-10.098 25.521-24.091 29.774-42.021 4.254-17.929 1.471-34.669-8.27-50.294-13.04-20.114-31.565-30.531-55.656-31.207v0.005z m0 0" fill="#FFFFFF" p-id="5529"></path><path d="M246.351 456.475c6.507 1.261 10.759 7.558 9.498 14.064l-1.997 10.306c-1.261 6.507-7.558 10.759-14.064 9.498l-57.428-11.128c-6.506-1.261-10.758-7.558-9.498-14.064l1.998-10.306c1.261-6.506 7.557-10.759 14.064-9.498l57.427 11.128z m601.226 22.521c6.478-1.406 10.589-7.795 9.182-14.272l-2.226-10.259c-1.406-6.477-7.797-10.587-14.272-9.182l-57.166 12.408c-6.477 1.405-10.588 7.795-9.182 14.272l2.227 10.258c1.405 6.477 7.795 10.587 14.272 9.183l57.165-12.408zM311.321 255.438c-4.329-5.02-11.906-5.579-16.925-1.25l-7.95 6.856c-5.019 4.329-5.578 11.906-1.25 16.924l38.204 44.297c4.329 5.019 11.906 5.579 16.925 1.25l7.95-6.856c5.019-4.329 5.578-11.906 1.25-16.925l-38.204-44.296z m431.19 21.037c4.327-5.019 3.769-12.596-1.25-16.925l-7.95-6.856c-5.019-4.329-12.596-3.769-16.924 1.25l-38.204 44.298c-4.327 5.018-3.769 12.596 1.25 16.924l7.95 6.856c5.019 4.328 12.596 3.769 16.924-1.251l38.204-44.296z m-214.236-91.759c0.04-6.628-5.302-12.032-11.929-12.071l-10.498-0.061c-6.627-0.039-12.031 5.303-12.07 11.929l-0.343 58.495c-0.039 6.627 5.302 12.031 11.93 12.07l10.498 0.062c6.628 0.039 12.031-5.303 12.07-11.93l0.342-58.494z" fill="#FFFFFF" p-id="5530"></path></svg>
