<svg t="1598352635455" class="icon" viewBox="0 0 1054 1024" version="1.1" xmlns="http://www.w3.org/2000/svg" p-id="47126" width="16" height="16"><path d="M512.430252 1024C230.098824 1024 0.430252 794.331429 0.430252 512S230.098824 0 512.430252 0s512 229.668571 512 512-229.668571 512-512 512z m0-994.742857C246.190252 29.257143 29.687395 245.76 29.687395 512s216.502857 482.742857 482.742857 482.742857 482.742857-216.502857 482.742857-482.742857S778.670252 29.257143 512.430252 29.257143z" fill="#d81e06" p-id="47127"></path><path d="M557.778824 570.514286c2.925714 1.462857 7.314286 2.925714 10.24 2.925714 4.388571 0 7.314286-1.462857 11.702857-2.925714 23.405714-16.091429 141.897143-99.474286 187.245714-182.857143 13.165714-19.017143 19.017143-40.96 19.017143-64.365714 0-65.828571-52.662857-118.491429-118.491429-118.491429-46.811429 0-80.457143 36.571429-98.011428 57.051429-16.091429-19.017143-52.662857-57.051429-98.011429-57.051429-65.828571 0-118.491429 52.662857-118.491428 118.491429 0 23.405714 7.314286 45.348571 19.017142 64.365714C420.270252 479.817143 556.315966 570.514286 557.778824 570.514286z m109.714285-326.217143c43.885714 0 78.994286 35.108571 78.994286 78.994286 0 16.091429-4.388571 30.72-13.165714 42.422857v1.462857c-35.108571 65.828571-124.342857 133.12-163.84 162.377143-39.497143-27.794286-128.731429-96.548571-163.84-162.377143V365.714286c-8.777143-13.165714-13.165714-27.794286-13.165715-42.422857 0-42.422857 35.108571-78.994286 78.994286-78.994286 32.182857 0 58.514286 30.72 73.142857 48.274286 8.777143 10.24 16.091429 17.554286 26.331429 17.554285s16.091429-7.314286 26.331428-17.554285c11.702857-16.091429 38.034286-48.274286 70.217143-48.274286z" fill="#d81e06" p-id="47128"></path><path d="M768.430252 560.274286c-7.314286-4.388571-14.628571-5.851429-21.942857-5.851429-21.942857 0-39.497143 17.554286-46.811429 24.868572-19.017143 20.48-43.885714 40.96-54.125714 49.737142-4.388571-1.462857-10.24-2.925714-16.091428-2.925714-36.571429-1.462857-95.085714-8.777143-108.251429-17.554286-16.091429-8.777143-27.794286-17.554286-38.034286-26.331428l-1.462857-1.462857c-32.182857-23.405714-58.514286-40.96-121.417143-40.96-17.554286 0-33.645714 4.388571-51.2 10.24H307.630252c-14.628571 4.388571-29.257143 8.777143-46.811428 8.777143-21.942857 0-39.497143 17.554286-39.497143 39.497142v92.16c0 21.942857 17.554286 39.497143 39.497143 39.497143 39.497143 0 89.234286 1.462857 99.474285 5.851429 21.942857 7.314286 73.142857 36.571429 89.234286 46.811428 7.314286 2.925714 14.628571 5.851429 21.942857 5.851429h166.765714c19.017143 0 39.497143-17.554286 46.811429-29.257143 8.777143-14.628571 32.182857-48.274286 98.011429-131.657143 1.462857-2.925714 2.925714-4.388571 2.925714-4.388571s1.462857-1.462857 1.462857-2.925714c11.702857-20.48 2.925714-46.811429-19.017143-59.977143z m-140.434286 119.954285l-125.805714 7.314286c-8.777143 0-35.108571-19.017143-46.811428-27.794286-1.462857-1.462857-4.388571-2.925714-5.851429-4.388571-1.462857-1.462857-4.388571-2.925714-5.851429-4.388571-10.24-7.314286-17.554286-11.702857-24.868571-14.628572-2.925714-1.462857-5.851429-1.462857-8.777143-1.462857-7.314286 0-14.628571 4.388571-17.554286 10.24-4.388571 8.777143-1.462857 21.942857 8.777143 26.331429 7.314286 2.925714 14.628571 8.777143 24.868572 16.091428 2.925714 1.462857 4.388571 2.925714 7.314285 4.388572h1.462858c24.868571 17.554286 48.274286 33.645714 68.754285 33.645714l125.805715-7.314286c24.868571 0 45.348571-20.48 45.348571-46.811428 0-4.388571 0-8.777143-1.462857-14.628572 16.091429-13.165714 38.034286-32.182857 55.588571-51.2 8.777143-8.777143 14.628571-13.165714 17.554286-13.165714h2.925714c2.925714 1.462857 5.851429 4.388571 4.388572 8.777143-5.851429 8.777143-80.457143 100.937143-102.4 138.971428-1.462857 2.925714-10.24 8.777143-13.165715 10.24H467.081681c-20.48-13.165714-70.217143-42.422857-96.548572-51.2-21.942857-7.314286-96.548571-7.314286-111.177143-7.314285v-90.697143c24.868571 0 43.885714-7.314286 59.977143-11.702857 14.628571-4.388571 26.331429-8.777143 39.497143-8.777143 51.2 0 68.754286 13.165714 99.474286 35.108571l1.462857 1.462857c11.702857 8.777143 24.868571 17.554286 40.96 27.794286 7.314286 4.388571 20.48 8.777143 39.497143 13.165714 33.645714 7.314286 73.142857 8.777143 86.308571 10.24h1.462857c1.462857 0 2.925714 0 4.388572 1.462857 1.462857 1.462857 1.462857 2.925714 1.462857 4.388572 0 2.925714-2.925714 5.851429-5.851429 5.851428z" fill="#d81e06" p-id="47129"></path></svg>
