<svg t="1600697758628" class="icon" viewBox="0 0 1025 1024" version="1.1" xmlns="http://www.w3.org/2000/svg" p-id="4674" width="16" height="16"><path d="M832 961.537H192.004C86.125 961.537 0 874.083 0 766.57V376.625c0-35.923 28.63-64.99 64.007-64.99 35.37 0 63.993 29.067 63.993 64.99v389.946c0 35.796 28.689 64.985 64.005 64.985h639.994c35.314 0 64-29.19 64-64.985V376.625c0-35.923 28.628-64.99 63.994-64.99 35.383 0 64.007 29.067 64.007 64.99v389.946c0.001 107.512-86.128 194.966-192 194.966zM534.622 74.651c-12.431-12.634-32.813-12.634-45.245 0L278.63 288.66c-12.433 12.627-8.25 22.973 9.376 22.973H352c17.629 0 32.008 14.6 32.008 32.493v129.985c0 17.898 14.369 32.495 31.997 32.495h191.99c17.631 0 32.008-14.597 32.008-32.495V344.127c0-17.893 14.37-32.493 32-32.493h63.991c17.63 0 21.822-10.346 9.375-22.972L534.623 74.65z m105.381 529.443c0 17.895-14.313 32.492-32.007 32.492-17.686 0-31.996-14.597-31.996-32.492 0-18.027 14.31-32.497 31.996-32.497 17.694 0 32.007 14.47 32.007 32.497z m-192.004 0c0 17.895-14.308 32.492-31.995 32.492-17.688 0-31.997-14.597-31.997-32.492 0-18.027 14.308-32.497 31.997-32.497 17.687 0 31.995 14.47 31.995 32.497z m-31.995-32.497h191.99v64.99h-191.99v-64.99z" p-id="4675" fill="#1296db"></path></svg>
