<?xml version="1.0" standalone="no"?><!DOCTYPE svg PUBLIC "-//W3C//DTD SVG 1.1//EN" "http://www.w3.org/Graphics/SVG/1.1/DTD/svg11.dtd"><svg t="1595578197274" class="icon" viewBox="0 0 1024 1024" version="1.1" xmlns="http://www.w3.org/2000/svg" p-id="2957" xmlns:xlink="http://www.w3.org/1999/xlink" width="14" height="14"><defs><style type="text/css"></style></defs><path d="M213.282006 279.272727 65.990721 279.272727C29.563843 279.272727 0 249.708885 0 213.282007L0 65.99072C0 29.563843 29.563843 0 65.990721 0L213.282006 0C249.752879 0 279.272727 29.563843 279.272727 65.99072L279.272727 213.282007C279.272727 249.708885 249.752879 279.272727 213.282006 279.272727ZM585.645642 279.272727 438.354358 279.272727C401.92748 279.272727 372.363636 249.708885 372.363636 213.282007L372.363636 65.99072C372.363636 29.563843 401.92748 0 438.354358 0L585.645642 0C622.116515 0 651.636364 29.563843 651.636364 65.99072L651.636364 213.282007C651.636364 249.708885 622.116515 279.272727 585.645642 279.272727ZM958.009279 279.272727 810.717994 279.272727C774.291116 279.272727 744.727273 249.708885 744.727273 213.282007L744.727273 65.99072C744.727273 29.563843 774.291116 0 810.717994 0L958.009279 0C994.480128 0 1024 29.563843 1024 65.99072L1024 213.282007C1024 249.708885 994.480128 279.272727 958.009279 279.272727ZM213.282006 651.636364 65.990721 651.636364C29.563843 651.636364 0 622.07252 0 585.645642L0 438.354357C0 401.927479 29.563843 372.363636 65.990721 372.363636L213.282006 372.363636C249.752879 372.363636 279.272727 401.927479 279.272727 438.354357L279.272727 585.645642C279.272727 622.07252 249.752879 651.636364 213.282006 651.636364ZM585.645642 651.636364 438.354358 651.636364C401.92748 651.636364 372.363636 622.07252 372.363636 585.645642L372.363636 438.354357C372.363636 401.927479 401.92748 372.363636 438.354358 372.363636L585.645642 372.363636C622.116515 372.363636 651.636364 401.927479 651.636364 438.354357L651.636364 585.645642C651.636364 622.07252 622.116515 651.636364 585.645642 651.636364ZM958.009279 651.636364 810.717994 651.636364C774.291116 651.636364 744.727273 622.07252 744.727273 585.645642L744.727273 438.354357C744.727273 401.927479 774.291116 372.363636 810.717994 372.363636L958.009279 372.363636C994.480128 372.363636 1024 401.927479 1024 438.354357L1024 585.645642C1024 622.07252 994.480128 651.636364 958.009279 651.636364ZM213.282006 1024 65.990721 1024C29.563843 1024 0 994.436157 0 958.009279L0 810.717994C0 774.291116 29.563843 744.727273 65.990721 744.727273L213.282006 744.727273C249.752879 744.727273 279.272727 774.291116 279.272727 810.717994L279.272727 958.009279C279.272727 994.436157 249.752879 1024 213.282006 1024ZM585.645642 1024 438.354358 1024C401.92748 1024 372.363636 994.436157 372.363636 958.009279L372.363636 810.717994C372.363636 774.291116 401.92748 744.727273 438.354358 744.727273L585.645642 744.727273C622.116515 744.727273 651.636364 774.291116 651.636364 810.717994L651.636364 958.009279C651.636364 994.436157 622.116515 1024 585.645642 1024ZM958.009279 1024 810.717994 1024C774.291116 1024 744.727273 994.436157 744.727273 958.009279L744.727273 810.717994C744.727273 774.291116 774.291116 744.727273 810.717994 744.727273L958.009279 744.727273C994.480128 744.727273 1024 774.291116 1024 810.717994L1024 958.009279C1024 994.436157 994.480128 1024 958.009279 1024Z" p-id="2958"></path></svg>
