<svg t="1609601838764" class="icon" viewBox="0 0 1024 1024" version="1.1" xmlns="http://www.w3.org/2000/svg" p-id="17038" width="16" height="16"><path d="M895.71875 490.71875c-15.375-61.875-68.71875-106.78125-126.84375-106.78125-43.40625 0-82.78125 24.9375-111 70.125-2.90625 4.6875-8.0625 7.59375-13.59375 7.59375s-10.6875-2.8125-13.59375-7.59375c-28.125-45.1875-67.59375-70.125-111-70.125-58.125 0-111.46875 44.90625-126.84375 106.78125-10.59375 42.5625-23.34375 192.09375 251.4375 340.3125 274.78125-148.21875 262.03125-297.75 251.4375-340.3125z m-371.34375-37.3125c-21.28125 4.03125-40.6875 18.65625-51.9375 39.28125-13.875 25.3125-14.4375 56.625-1.6875 88.21875 3.28125 8.25-0.65625 17.53125-8.90625 20.8125-1.96875 0.75-4.03125 1.125-6 1.125-6.375 0-12.375-3.75-14.90625-10.03125-16.40625-40.6875-15.28125-81.75 3.28125-115.59375 15.84375-28.875 43.5-49.59375 74.15625-55.40625 8.71875-1.59375 17.0625 4.125 18.75 12.75 1.6875 8.8125-4.03125 17.15625-12.75 18.84375z" fill="#fb8b24" p-id="17039"></path><path d="M301.8125 232.0625c-46.03125 8.625-87.84375 39.9375-111.75 83.53125-28.21875 51.46875-29.90625 114.1875-4.78125 176.4375 2.53125 6.28125 8.53125 10.03125 14.90625 10.03125 1.96875 0 4.03125-0.375 6-1.125 8.25-3.28125 12.1875-12.65625 8.90625-20.8125-21.46875-53.15625-20.34375-106.125 3.1875-149.0625 19.3125-35.34375 52.78125-60.5625 89.53125-67.5 8.71875-1.59375 14.4375-10.03125 12.75-18.75-1.6875-8.71875-10.125-14.4375-18.75-12.75zM518.46875 421.90625c-30.65625 5.71875-58.3125 26.4375-74.15625 55.40625-18.5625 33.84375-19.6875 74.90625-3.28125 115.59375 2.53125 6.28125 8.53125 10.03125 14.90625 10.03125 1.96875 0 4.03125-0.375 6-1.125 8.25-3.28125 12.1875-12.65625 8.90625-20.8125-12.75-31.59375-12.1875-63 1.6875-88.21875 11.25-20.53125 30.65625-35.25 51.9375-39.28125 8.71875-1.59375 14.4375-10.03125 12.75-18.75-1.6875-8.8125-10.03125-14.53125-18.75-12.84375z" fill="#666666" p-id="17040"></path><path d="M926.84375 483.03125c-4.96875-19.78125-13.21875-38.625-24.1875-55.40625 5.90625-60.1875-6.65625-117.375-36.65625-165.9375-28.6875-46.40625-71.625-81.46875-120.9375-98.71875-72.46875-25.40625-173.25-14.625-247.21875 86.90625-27.09375-37.125-59.34375-64.21875-96.09375-80.90625-39.28125-17.71875-82.5-22.40625-124.875-13.40625C181.90625 175.71875 108.5 258.21875 94.15625 360.96875c-11.15625 79.78125 13.125 165.1875 70.3125 247.03125 64.21875 91.875 171 181.59375 325.875 263.625 2.34375 1.21875 4.875 1.875 7.5 1.875 2.53125 0 5.15625-0.65625 7.5-1.875 25.40625-13.5 49.96875-27.375 73.21875-41.4375 18.375 11.34375 37.78125 22.5 58.3125 33.28125 2.34375 1.21875 4.875 1.875 7.5 1.875 2.53125 0 5.15625-0.65625 7.5-1.875 111-58.78125 190.6875-125.0625 236.8125-197.15625 49.78125-77.8125 48.1875-142.6875 38.15625-183.28125zM644.28125 831.03125C369.5 682.8125 382.25 533.28125 392.84375 490.71875c15.375-61.875 68.71875-106.78125 126.84375-106.78125 43.40625 0 82.78125 24.9375 111 70.125 2.90625 4.6875 8.0625 7.59375 13.59375 7.59375s10.6875-2.8125 13.59375-7.59375c28.125-45.1875 67.59375-70.125 111-70.125 58.125 0 111.46875 44.90625 126.84375 106.78125 10.59375 42.5625 23.34375 192.09375-251.4375 340.3125zM497.84375 839.1875c-140.8125-75.5625-244.125-159.46875-307.125-249.65625-52.40625-75-74.8125-152.53125-64.78125-224.15625 12.46875-89.4375 75.84375-161.15625 157.59375-178.5 77.71875-16.5 150.9375 19.96875 200.8125 100.03125 2.90625 4.6875 8.0625 7.59375 13.59375 7.59375s10.6875-2.8125 13.59375-7.59375c55.03125-88.40625 138.46875-123.46875 223.03125-93.75C802.25 216.96875 869.28125 287.9375 872 392c-1.5-1.3125-2.90625-2.53125-4.5-3.84375-28.59375-23.4375-63.65625-36.375-98.625-36.375-48 0-91.5 23.15625-124.59375 65.625-33.09375-42.5625-76.59375-65.625-124.59375-65.625-35.0625 0-70.03125 12.9375-98.71875 36.375-28.96875 23.71875-50.0625 57.375-59.34375 94.78125-10.125 40.6875-11.71875 105.46875 38.15625 183.28125 32.8125 51.28125 82.6875 99.5625 148.59375 144.375-16.125 9.75-33.09375 19.3125-50.53125 28.59375z" fill="#666666" p-id="17041"></path></svg>
