<svg t="1610890860198" class="icon" viewBox="0 0 1044 1024" version="1.1" xmlns="http://www.w3.org/2000/svg" p-id="5446" width="16" height="16"><path d="M1029.93664 400.042667L596.869973 34.133333a110.421333 110.421333 0 0 0-143.701333 0L14.469973 399.957333a37.461333 37.461333 0 0 0 22.442667 67.157334c9.301333 0.085333 18.602667-3.669333 24.234667-9.216l13.056-11.264v416.341333c0 83.968 63.488 153.002667 143.701333 153.002667h608.597333c78.336 0 143.701333-69.12 143.701334-153.002667V446.634667l11.178666 9.386666c7.509333 5.546667 14.933333 9.386667 26.112 9.386667 20.565333 0 37.376-16.896 37.376-37.376a38.4 38.4 0 0 0-14.933333-28.074667zM447.53664 941.226667V680.106667c0-20.48 16.810667-37.376 37.376-37.376h74.666667c20.48 0 37.290667 16.810667 37.290666 37.376v261.290666h-149.333333z m448-78.336c0 42.922667-31.744 78.336-70.912 78.336H671.53664V680.106667c0-61.610667-50.346667-112.042667-112.042667-112.042667h-74.666666c-61.525333 0-111.957333 50.346667-111.957334 112.042667v261.290666H219.781973c-39.253333 0-70.912-35.413333-70.912-78.336v-477.866666l350.890667-293.12a39.253333 39.253333 0 0 1 48.64 0l347.136 291.242666v479.744z" p-id="5447"></path></svg>
