<?xml version="1.0" standalone="no"?><!DOCTYPE svg PUBLIC "-//W3C//DTD SVG 1.1//EN" "http://www.w3.org/Graphics/SVG/1.1/DTD/svg11.dtd"><svg t="1600697668922" class="icon" viewBox="0 0 1024 1024" version="1.1" xmlns="http://www.w3.org/2000/svg" p-id="3487" xmlns:xlink="http://www.w3.org/1999/xlink" width="24" height="24"><defs><style type="text/css"></style></defs><path d="M810.669689 170.664249h110.931762A100.691907 100.691907 0 0 1 1024 273.062798v648.524146a100.691907 100.691907 0 0 1-102.398549 102.39855H102.413056A100.691907 100.691907 0 0 1 0.014507 921.586944V273.062798A100.691907 100.691907 0 0 1 102.413056 170.664249h110.931762a42.666062 42.666062 0 1 1 0 85.332124H85.346631v341.328498h298.662436a127.998187 127.998187 0 1 0 255.996373 0H938.667876V255.996373H810.669689a42.666062 42.666062 0 1 1 0-85.332124z" fill="#1296db" p-id="3488"></path><path d="M493.746179 565.069328c21.077035 8.533212 45.567354 4.522603 61.86579-10.069191l196.861211-178.258808a47.188665 47.188665 0 0 0 14.421129-48.63931 53.332578 53.332578 0 0 0-39.423441-35.668828 59.732487 59.732487 0 0 0-53.759239 13.055815L563.462524 405.327591V104.105192c0-25.684969-23.039674-46.506008-51.369938-46.506008-28.330265 0-51.369939 20.821038-51.369939 46.506008v299.345092L350.217545 303.355702a60.073816 60.073816 0 0 0-77.14024 1.450647 47.103333 47.103333 0 0 0-1.62131 69.88701l196.861211 178.173475c7.082566 5.973249 15.871775 10.239855 25.428973 12.202494z" fill="#1296db" p-id="3489"></path></svg>
