<svg t="1608362033373" class="icon" viewBox="0 0 1024 1024" version="1.1" xmlns="http://www.w3.org/2000/svg" p-id="10676" width="16" height="16"><path d="M1008.92922092 511.82135291c0 275.49614877-223.4763483 498.82734629-499.09531693 498.82734627S10.67159441 787.31750166 10.67159441 511.82135291 234.1256118 13.00517207 509.76691134 13.00517207s499.16230959 223.33119752 499.16230958 498.81618084z m-90.75272341 0c0-225.05067579-183.19142872-408.11928466-408.38725528-408.11928465s-408.37608985 183.11327063-408.37608986 408.11928465S284.59341566 919.951803 509.76691134 919.951803s408.40958618-183.06860887 408.40958617-408.13045009z" fill="#949DA6" p-id="10677"></path><path d="M736.67105072 511.82135291c0 275.49614877-101.6055343 498.82734629-226.88180849 498.82734627s-226.87064306-223.30886662-226.87064307-498.82734627S384.49063716 13.00517207 509.76691134 13.00517207s226.90413939 223.33119752 226.90413938 498.81618084z m-90.75272342 0c0-265.07879014-96.60341571-408.11928466-136.12908507-408.11928465S373.6601571 246.74256276 373.6601571 511.82135291 470.26357284 919.951803 509.76691134 919.951803s136.15141598-143.04049452 136.15141596-408.13045009z" fill="#949DA6" p-id="10678"></path><path d="M101.41315237 285.09586061h816.76334514v90.69689618H101.41315237zM101.41315237 602.5182491h816.76334514v90.69689619H101.41315237z" fill="#949DA6" p-id="10679"></path></svg>
