<?xml version="1.0" standalone="no"?><!DOCTYPE svg PUBLIC "-//W3C//DTD SVG 1.1//EN" "http://www.w3.org/Graphics/SVG/1.1/DTD/svg11.dtd"><svg t="1595578145617" class="icon" viewBox="0 0 1024 1024" version="1.1" xmlns="http://www.w3.org/2000/svg" p-id="2221" xmlns:xlink="http://www.w3.org/1999/xlink" width="14" height="14"><defs><style type="text/css"></style></defs><path d="M72 128c39.765 0 72 32.235 72 72s-32.235 72-72 72-72-32.235-72-72 32.235-72 72-72z m0 312c39.765 0 72 32.235 72 72s-32.235 72-72 72-72-32.235-72-72 32.235-72 72-72z m0 312c39.765 0 72 32.235 72 72s-32.235 72-72 72-72-32.235-72-72 32.235-72 72-72z m248-616h640c35.346 0 64 28.654 64 64 0 35.346-28.654 64-64 64H320c-35.346 0-64-28.654-64-64 0-35.346 28.654-64 64-64z m0 312h640c35.346 0 64 28.654 64 64 0 35.346-28.654 64-64 64H320c-35.346 0-64-28.654-64-64 0-35.346 28.654-64 64-64z m0 312h640c35.346 0 64 28.654 64 64 0 35.346-28.654 64-64 64H320c-35.346 0-64-28.654-64-64 0-35.346 28.654-64 64-64z" p-id="2222"></path></svg>
