<svg t="1609600553955" class="icon" viewBox="0 0 1024 1024" version="1.1" xmlns="http://www.w3.org/2000/svg" p-id="14002" width="16" height="16"><path d="M1023.431111 518.295704c0-288.768-228.958815-517.726815-517.726815-517.726815C229.527704 0.568889 0.568889 229.527704 0.568889 518.295704c0 276.176593 228.958815 505.135407 505.135407 505.135407 288.768 0 517.726815-228.958815 517.726815-505.135407z" fill="#CCCCCC" p-id="14003"></path><path d="M720.327111 405.921185h-37.774222v-78.127407C682.552889 229.793185 606.663111 151.703704 511.772444 151.703704c-94.814815 0-170.780444 78.127407-170.780444 176.090074v78.127407h-37.774222c-20.66963 0-37.736296 17.559704-37.736297 38.798222v312.888889c0 21.238519 17.066667 38.836148 37.736297 38.836148h417.109333C741.451852 796.444444 758.518519 778.884741 758.518519 757.608296v-312.888889c0-21.238519-17.066667-38.798222-38.191408-38.798222z m-94.814815 0h-227.441777v-78.127407c0-64.70163 51.2-117.380741 113.701925-117.380741 62.881185 0.227556 113.701926 52.717037 113.701926 117.380741v78.127407z" fill="#FFFFFF" p-id="14004"></path></svg>
