<svg t="1606618146340" class="icon" viewBox="0 0 1024 1024" version="1.1" xmlns="http://www.w3.org/2000/svg" p-id="3028" width="24" height="24"><path d="M511.36 749.568c130.56 0 261.12-0.2048 391.7312 0.2048 13.8752 0.0512 25.6-9.472 25.5488-25.344-0.3584-142.08-0.2048-284.16-0.2048-426.24 0-14.6944-9.0368-23.7568-23.7568-23.7568H119.424c-14.7968 0-23.8336 9.0112-23.8336 23.68v427.9808c0 14.3872 9.1136 23.4496 23.4496 23.4496h392.32z m0.3584 44.032H118.7072C80.6144 793.6 51.2 764.3392 51.2 726.4512V297.216C51.2 259.712 80.6912 230.4 118.4 230.4h787.2C943.3088 230.4 972.8 259.712 972.8 297.216v429.2608C972.8 764.3648 943.36 793.6 905.2928 793.6H511.7184z" fill="#000000" p-id="3029"></path><path d="M538.0352 661.2736h-88.0128v-169.3696a24.32 24.32 0 0 0-1.28-0.4352l-87.3728 108.4416-88.3968-109.6704v170.9312H184.8064V362.8544c1.4848-0.1024 3.2-0.3072 4.9152-0.3072 25.984 0 51.968 0.0512 77.9776-0.1024a9.5744 9.5744 0 0 1 8.448 4.1216C303.616 400.896 331.264 435.0976 358.8352 469.2992c0.7424 0.9216 1.6128 1.7408 2.688 2.9184 12.2112-15.1552 24.32-30.1312 36.352-45.1328 16.4864-20.4288 32.9216-40.9344 49.4592-61.2864 1.2288-1.5104 3.4304-3.1232 5.1968-3.1232 28.3904-0.2048 56.7552-0.128 85.504-0.128v298.752z m155.392-298.5472h88.5504v153.2416h89.216l-133.2224 145.5616-132.736-145.024h88.192V362.752z" fill="#000000" p-id="3030"></path></svg>
