<svg t="1608391395496" class="icon" viewBox="0 0 1024 1024" version="1.1" xmlns="http://www.w3.org/2000/svg" p-id="32449" width="16" height="16"><path d="M1024 475.4432l-112.64-338.688a146.9952 146.9952 0 0 0-138.9568-100.1984H251.648A146.9952 146.9952 0 0 0 112.64 136.7552L0 475.4432v365.7216a146.7392 146.7392 0 0 0 146.2784 146.2784h731.4432a144.8448 144.8448 0 0 0 56.7808-11.5712A146.7392 146.7392 0 0 0 1024 841.1648V475.4432zM161.0752 153.6a96.1536 96.1536 0 0 1 90.5728-65.8432h520.7552a96.0512 96.0512 0 0 1 90.4192 65.1776l107.2128 322.56h-269.7728c-22.8864 0-40.96 16.4352-47.2064 38.4512a143.616 143.616 0 0 1-14.4896 34.6624 146.0224 146.0224 0 0 1-253.0816 0 140.544 140.544 0 0 1-12.1856-34.3552 51.2 51.2 0 0 0-49.664-38.7584H53.9648z" fill="#566374" p-id="32450"></path><path d="M332.8 242.3808h358.4a25.6 25.6 0 0 0 0-51.2H332.8a25.6 25.6 0 0 0 0 51.2zM281.6 373.0432h460.8a25.6 25.6 0 0 0 0-51.2H281.6a25.6 25.6 0 0 0 0 51.2z" fill="#566374" p-id="32451"></path></svg>
