<svg t="1609072900675" class="icon" viewBox="0 0 1024 1024" version="1.1" xmlns="http://www.w3.org/2000/svg"><path d="M231.667825 1.895163h561.578162c126.880759 0 229.736335 102.857623 229.736335 229.735312v561.579185c0 126.878712-102.855576 229.736335-229.736335 229.736335H231.667825c-126.879736 0-229.735311-102.857623-229.735311-229.736335V231.630475c0-126.877689 102.855576-229.735311 229.735311-229.735312z"  p-id="9942"></path><path d="M798.271444 751.116983L692.32753 611.475596h54.833863V273.724175h102.220102v337.751421h54.833863L798.271444 751.116983zM519.995603 467.431945c0-15.60542 0.345877-32.107255 1.044796-49.479924l-15.560394 21.729907c-0.196475 0.618077-0.393973 1.254573-0.592495 1.850137l-8.137331 11.95324-124.612089 189.588963-46.109154-71.578222h-0.285502l-32.247448-50.504254-46.875611-72.767304h0.414439l-9.785877-15.326057-0.527002-2.133594-16.407692-24.240077c1.198292 37.800931 1.825578 65.336054 1.825578 82.491783v261.163091h-101.44239V275.336906h159.719678l88.62548 131.151015h1.518587l91.159186-131.151015H623.596146v474.842728H519.996626V467.431945z" fill="#ffffff" p-id="9943"></path></svg>
