<svg t="1610889026373" class="icon" viewBox="0 0 1024 1024" version="1.1" xmlns="http://www.w3.org/2000/svg" p-id="2827" width="16" height="16"><path d="M455.68 814.08H225.28c-25.6 0-46.08-20.48-46.08-46.08V348.16h701.44v51.2c0 15.36 10.24 25.6 25.6 25.6s25.6-10.24 25.6-25.6V204.8c0-40.96-30.72-71.68-71.68-71.68H204.8c-46.08 0-76.8 35.84-76.8 71.68v583.68c0 40.96 30.72 71.68 71.68 71.68H460.8c15.36 0 25.6-10.24 25.6-25.6-5.12-10.24-15.36-20.48-30.72-20.48zM174.08 230.4c0-25.6 20.48-46.08 46.08-46.08h609.28c25.6 0 46.08 20.48 46.08 46.08v71.68H174.08V230.4z" p-id="2828"></path><path d="M926.72 486.4h-281.6c-15.36 0-25.6 10.24-25.6 25.6s10.24 25.6 25.6 25.6h220.16s-5.12 0-5.12 5.12l-327.68 353.28c-10.24 10.24-10.24 25.6 0 30.72 10.24 10.24 25.6 10.24 30.72 0l327.68-353.28c5.12-5.12 5.12-5.12 5.12-10.24v230.4c0 15.36 10.24 25.6 25.6 25.6s25.6-10.24 25.6-25.6V512c0-15.36-10.24-25.6-20.48-25.6z"  p-id="2829"></path></svg>
