<svg t="1593395922892" viewBox="0 0 1024 1024" version="1.1"
     xmlns="http://www.w3.org/2000/svg" p-id="5851" width="22" height="22"><path
        d="M160 352H896V640h-159.812267a63.914667 63.914667 0 0 0-64.187733 63.931733V896H223.812267c-35.242667 0-63.812267-28.859733-63.812267-64.034133V352z m0-32v-95.965867a64.170667 64.170667 0 0 1 64.034133-64.034133h607.9488a63.914667 63.914667 0 0 1 64.034134 63.744v96.256H160.017067zM704 896V704.1024c0-17.732267 14.4384-32.1024 31.709867-32.1024H896L704 896zM256 448v32h544V448H256z m0 96v32h544v-32H256z m0 96v32h352V640H256z m0 96V768h352v-32H256z"
        p-id="5852" fill="#ffffff"></path></svg>
