<svg t="1598494421474" class="icon" viewBox="0 0 1024 1024" version="1.1" xmlns="http://www.w3.org/2000/svg" p-id="2625" width="18" height="18"><path d="M597.546667 98.133333a29.866667 29.866667 0 0 1 4.053333 59.477334l-4.053333 0.256H170.666667a55.466667 55.466667 0 0 0-55.168 49.792L115.2 213.333333v554.666667a55.466667 55.466667 0 0 0 49.792 55.168L170.666667 823.466667h201.642666c12.032 0 23.850667 2.986667 34.346667 8.661333l6.186667 3.712 92.330666 62.208a12.8 12.8 0 0 0 11.434667 1.450667l2.730667-1.365334 95.573333-62.762666a72.533333 72.533333 0 0 1 32.768-11.562667l7.04-0.341333H853.333333a55.466667 55.466667 0 0 0 55.168-49.792L908.8 768V388.778667a29.866667 29.866667 0 0 1 59.477333-4.053334l0.256 4.053334V768a115.2 115.2 0 0 1-107.946666 114.986667L853.333333 883.2h-198.613333a12.8 12.8 0 0 0-4.821333 0.938667l-2.218667 1.152-95.573333 62.762666a72.533333 72.533333 0 0 1-74.624 2.986667l-5.717334-3.456-92.330666-62.208a12.8 12.8 0 0 0-4.608-1.92l-2.56-0.256H170.666667a115.2 115.2 0 0 1-114.986667-107.946667L55.466667 768V213.333333a115.2 115.2 0 0 1 107.946666-114.986666L170.666667 98.133333h426.88z m-168.192 512a29.866667 29.866667 0 0 1 4.053333 59.477334l-4.053333 0.256H260.608a29.866667 29.866667 0 0 1-4.053333-59.477334l4.053333-0.256h168.746667z m0-170.666666a29.866667 29.866667 0 0 1 4.053333 59.477333l-4.053333 0.256H260.608a29.866667 29.866667 0 0 1-4.053333-59.477333l4.053333-0.256h168.746667z m151.253333-170.368a29.866667 29.866667 0 0 1 4.053333 59.477333l-4.053333 0.256h-320a29.866667 29.866667 0 0 1-4.053333-59.477333l4.053333-0.256h320z" fill="#333333" p-id="2626"></path><path d="M914.986667 111.146667a29.866667 29.866667 0 0 1 51.498666 29.866666l-2.218666 3.84-350.293334 512a29.866667 29.866667 0 0 1-51.498666-29.866666l2.218666-3.84 350.293334-512z" fill="#4F7AFE" p-id="2627"></path></svg>
