<svg t="1610891568652" class="icon" viewBox="0 0 1339 1024" version="1.1" xmlns="http://www.w3.org/2000/svg" p-id="8077" width="16" height="16"><path d="M1269.602462 545.319385L1018.092308 346.584615a142.178462 142.178462 0 0 0-196.292923 19.849847l75.382153 60.100923a47.261538 47.261538 0 0 1 61.833847-3.702154l251.510153 198.813538c13.390769 10.948923 17.171692 24.260923 17.959385 32.846769a49.624615 49.624615 0 0 1-9.058461 35.997539l-111.064616 146.353231a45.607385 45.607385 0 0 1-32.059077 18.35323 46.788923 46.788923 0 0 1-35.131077-9.216l-251.588923-198.813538a47.497846 47.497846 0 0 1-17.959384-32.846769c-0.472615-5.750154-1.260308-14.414769 2.756923-23.236923l-76.484923-60.49477c-38.439385 63.015385-25.048615 146.825846 33.792 193.299693l251.588923 198.813538a141.469538 141.469538 0 0 0 200.546461-25.757538l111.064616-146.432c47.970462-63.330462 36.627692-155.963077-25.206154-205.193846M514.363077 447.960615a46.867692 46.867692 0 0 1-43.795692 36.548923l-317.597539 14.257231a45.922462 45.922462 0 0 1-33.713231-12.839384 50.727385 50.727385 0 0 1-15.517538-33.949539l-7.876923-185.107692a48.836923 48.836923 0 0 1 45.686154-50.412308l317.755077-14.178461a45.922462 45.922462 0 0 1 33.71323 12.839384c4.568615 3.938462 11.342769 12.918154 14.729847 25.363693l95.783384-3.938462c-7.325538-76.484923-72.310154-135.246769-148.086154-132.332308L137.058462 118.941538C58.446769 122.092308-2.993231 190.464 0 270.966154l7.876923 184.950154c3.150769 80.423385 69.947077 143.36 148.48 140.20923l318.779077-13.863384c73.728-3.072 132.489846-64.196923 136.664615-138.870154l-97.437538 4.647385z" fill="#999999" p-id="8078"></path><path d="M587.933538 323.347692c17.644308-8.900923 37.336615-10.712615 55.926154-15.044923a175.104 175.104 0 0 0-19.534769-16.226461l-344.379077 15.36c-25.206154 0.236308-43.953231 22.606769-43.716923 48.364307a46.316308 46.316308 0 0 0 47.340308 44.740923l342.488615-15.438769c14.808615-8.664615 28.829538-16.856615 42.535385-25.993846-26.387692-9.137231-53.720615-13.863385-79.950769-25.127385-3.938462-2.205538-4.726154-8.822154-0.708924-10.633846M775.876923 498.609231c-13.154462-1.024-25.836308-3.308308-39.384615-5.277539l291.76123 212.755693c20.007385 14.966154 48.285538 10.318769 62.54277-11.027693a45.764923 45.764923 0 0 0-10.791385-63.960615L787.298462 415.822769c1.575385 8.192 2.835692 15.675077 3.544615 24.339693-0.157538 4.017231-5.12 6.301538-8.270769 5.671384-15.281231-6.144-29.144615-15.911385-44.898462-22.843077 13.705846 22.843077 32.295385 43.401846 45.922462 66.244923 1.732923 4.253538-2.914462 9.294769-7.719385 9.452308M936.093538 218.584615l-68.765538-40.093538-44.504615 80.738461 7.325538 37.651693zM740.588308 185.344L704.354462 0 617.550769 17.880615l82.392616 188.573539z" fill="#999999" p-id="8079"></path></svg>
