<svg t="1593395771739" class="icon" viewBox="0 0 1024 1024" version="1.1"
     xmlns="http://www.w3.org/2000/svg" p-id="4150" width="22" height="22"><path
        d="M74.77083334 927.91666666c0 11.625 11.625 23.25 23.25 23.25h151.125c11.625 0 23.25-11.625 23.25-23.25v-813.75c0-11.625-11.625-23.25-23.25-23.25H98.02083334c-11.625 0-23.25 11.625-23.25 23.25v813.75z m58.125-685.875c11.625-5.8125 34.875-11.625 46.5-11.625h5.8125c11.625 0 34.875 5.8125 46.5 11.625 0 0 11.625 5.8125 11.625 29.0625 0 17.4375-11.625 23.25-11.625 23.25-11.625 5.8125-34.875 5.8125-46.5 5.8125h-5.8125c-17.4375 0-34.875 0-46.5-5.8125 0 0-11.625-5.8125-11.625-29.0625C115.45833334 247.85416666 132.89583334 242.04166666 132.89583334 242.04166666z m0 127.875c11.625-5.8125 29.0625-11.625 46.5-11.625h5.8125c11.625 0 34.875 5.8125 46.5 11.625 0 0 11.625 5.8125 11.625 29.0625 0 11.625-11.625 23.25-11.625 23.25-11.625 0-34.875 5.8125-46.5 5.8125h-5.8125c-11.625 0-34.875-5.8125-46.5-11.625 0 0-11.625-5.8125-11.625-29.0625-5.8125-11.625 11.625-17.4375 11.625-17.4375z m0 122.0625c11.625-5.8125 34.875-11.625 46.5-11.625h5.8125c11.625 0 34.875 5.8125 46.5 11.625 0 0 11.625 5.8125 11.625 29.0625 0 17.4375-11.625 23.25-11.625 23.25-11.625 5.8125-34.875 11.625-46.5 11.625h-5.8125c-11.625 0-34.875-5.8125-46.5-11.625 0 0-11.625-5.8125-11.625-29.0625-5.8125-17.4375 11.625-23.25 11.625-23.25z m203.4375 435.9375c0 11.625 11.625 23.25 23.25 23.25h151.125c11.625 0 23.25-11.625 23.25-23.25v-813.75c0-11.625-11.625-23.25-23.25-23.25H359.58333334c-11.625 0-23.25 11.625-23.25 23.25v813.75zM731.58333334 102.54166666c-5.8125-11.625-17.4375-17.4375-29.0625-17.4375l-145.3125 46.5c-11.625 5.8125-23.25 17.4375-17.4375 29.0625L778.08333334 939.54166666c5.8125 11.625 17.4375 17.4375 29.0625 17.4375l145.3125-46.5c11.625-5.8125 17.4375-17.4375 17.4375-29.0625L731.58333334 102.54166666z"
        p-id="4151" fill="#ffffff"></path></svg>
