<svg t="1608371571707" class="icon" viewBox="0 0 1024 1024" version="1.1" xmlns="http://www.w3.org/2000/svg" p-id="28120" width="16" height="16"><path d="M757.7 701.1l36.7 63.5c62.3-69.4 96.6-159.4 96.5-252.6 0-209.2-169.6-378.9-378.9-378.9-209.2 0-378.9 169.6-378.9 378.9-0.1 94.8 35.4 186.2 99.5 256L417 448.6c-41.1-52.5-31.8-128.3 20.7-169.3 11.9-9.3 25.4-16.3 39.8-20.6V202c0-19 15.4-34.4 34.4-34.4s34.4 15.4 34.4 34.4v56.7c63.8 19 100.1 86.2 81.1 150.1-3.9 12.9-9.9 25.1-17.8 36.1L719.3 635m-46.5 56.7L554.6 487c-13.3 5-27.6 7.7-42.6 7.7-13.4 0-26.4-2.2-38.4-6.3L284.9 815.3c65.5 49.2 145.2 75.7 227.1 75.6 86.8 0 166.7-29.2 230.6-78.2l-34.8-60.3M512 959.8C264.7 959.8 64.2 759.3 64.2 512S264.7 64.2 512 64.2 959.8 264.7 959.8 512 759.3 959.8 512 959.8z m0-533.9c28.5 0 51.7-23.1 51.7-51.6s-23.1-51.7-51.7-51.7c-28.5 0-51.7 23.2-51.6 51.7 0 28.5 23.1 51.6 51.6 51.6z" fill="#333333" p-id="28121"></path><path d="M707.8 753.1c-55.3 45.1-124.4 69.7-195.8 69.6-19 0-34.4-15.4-34.5-34.5 0-19 15.4-34.5 34.4-34.5 61.8 0 118.1-23.2 160.8-61.4l46.7-56.8c22.1-37.2 33.7-79.6 33.6-122.9 0-19 15.4-34.4 34.4-34.5 19 0 34.5 15.4 34.5 34.4 0 71.2-24 136.7-64.3 189.1l-49.8 51.5z" fill="#1A82EE" p-id="28122"></path></svg>
