<svg t="1609470308580" class="icon" viewBox="0 0 1024 1024" version="1.1" xmlns="http://www.w3.org/2000/svg" p-id="2747" width="16" height="16"><path d="M310.9 727.9c-60.5 0-109.7-49.2-109.7-109.7s49.2-109.7 109.7-109.7 109.7 49.2 109.7 109.7-49.2 109.7-109.7 109.7z m0-169.5c-32.9 0-59.7 26.8-59.7 59.7 0 32.9 26.8 59.7 59.7 59.7 32.9 0 59.7-26.8 59.7-59.7 0-32.9-26.8-59.7-59.7-59.7z" fill="#0C0C0C" p-id="2748"></path><path d="M838.4 556.9c18 0 35.1 5.5 49.4 16l6.6 4.8h40.1V386.1c0-51.4-41.8-93.3-93.2-93.3H730c11.4-20 17.6-42.9 17.6-66.5 0-74.2-60.3-134.5-134.5-134.5-74.1 0-134.5 60.4-134.5 134.5 0 23.7 6.2 46.5 17.6 66.5H367.3c-40.9 0-76.7 26.3-88.9 65.4-1 3.1-1.7 6-2.3 8.9v8.7c-4.8 2-8.8 4.9-12.6 8.7-7.4 7.4-11.7 17.7-11.7 28.1v21.1L222 446.1l-14.9-14.8c-7.5-7.5-17.5-11.6-28.1-11.6-10.6 0-20.5 4.1-28.1 11.6l-27.1 27.1c-7.5 7.5-11.6 17.4-11.7 28v0.1c0 10.6 4.1 20.6 11.6 28.1l14.9 14.9-12.3 29.9h-21.1c-10.6 0-20.6 4.1-28.1 11.6-7.4 7.4-11.7 17.7-11.7 28.1v38.3c0 10.6 4.1 20.6 11.6 28.1 7.4 7.4 17.6 11.6 28.1 11.6h21.1l12.3 29.9-14.9 14.8c-7.4 7.4-11.7 17.7-11.7 28.1 0 10.6 4.1 20.6 11.7 28.1l27.1 27.1c7.5 7.5 17.5 11.6 28.1 11.6 10.5 0 20.7-4.2 28.1-11.6l14.9-14.8 29.9 12.3v21.1c0 10.6 4.1 20.6 11.6 28.1 3.1 3.1 6.7 5.7 10.6 7.6v0.5c0 51.4 41.8 93.3 93.2 93.3h474c51.4 0 93.2-41.8 93.2-93.3V705h-40.1l-6.6 4.8c-14.3 10.5-31.4 16-49.4 16-46.6 0-84.5-37.9-84.5-84.5 0.2-46.5 38.1-84.4 84.7-84.4z m-595.6 188c-17.7-8.7-41-5-55 9l-8.8 8.8-12.6-12.7 8.7-8.7c14-13.9 17.7-37.3 9.1-55.1l-11-26.7c-6.4-18.6-25.7-32.4-45.4-32.5h-12.3v-17.8h12.3c19.7 0 39-13.9 45.4-32.5l11-26.6c8.7-17.7 4.9-41.1-9-55l-8.7-8.8 12.6-12.6 8.8 8.7c13.9 14 37.3 17.7 55 9l26.6-11C288.1 474 302 454.7 302 435v-12.3h17.8V435c0 19.7 13.9 39 32.5 45.4l26.6 11c17.7 8.7 41.1 4.9 55.1-9l8.7-8.7 12.6 12.6-8.8 8.8c-13.9 14-17.6 37.3-9 55l11 26.7c6.5 18.6 25.7 32.5 45.4 32.5h12.3v17.8h-12.3c-19.7 0-39 13.9-45.4 32.4l-11 26.7c-8.6 17.7-4.9 41.1 9.1 55l8.7 8.7-12.6 12.6-8.7-8.7-0.1-0.1c-14-13.9-37.4-17.7-55.1-8.9l-26.6 11c-18.6 6.5-32.5 25.7-32.5 45.4v12.2h-17.8v-12.2c0-19.7-13.9-39-32.5-45.4l-26.6-10.9z m595.6 30.9c16 0 31.5-2.7 46.1-8.1V860c0 23.9-19.4 43.3-43.2 43.3h-474c-22.6 0-41.2-17.5-43-39.7h5.6c10.5 0 20.7-4.2 28.1-11.6 7.4-7.4 11.7-17.7 11.7-28.1v-21l30-12.3 14.7 14.8c7.6 7.6 17.6 11.8 28.2 11.7 10.5 0 20.7-4.3 28-11.6l27.1-27.1c7.5-7.5 11.7-17.5 11.7-28.2 0-10.6-4.1-20.6-11.7-28.1L483 707l12.3-29.9h21.1c10.6 0 20.6-4.1 28.1-11.6 7.4-7.4 11.7-17.7 11.7-28.1V599c0-10.6-4.1-20.6-11.6-28.1-7.4-7.4-17.6-11.7-28.1-11.7h-21.1L483 529.4l14.9-14.9c7.5-7.5 11.6-17.5 11.6-28.1 0-10.7-4.1-20.7-11.7-28.1l-27.1-27.1c-7.5-7.5-17.5-11.6-28.1-11.6-10.6 0-20.6 4.1-28.1 11.6l-14.9 14.9-29.9-12.3v-21.1c0-10.5-4.2-20.7-11.6-28.1-7.4-7.4-17.6-11.7-28.1-11.7h-3.3v-1.3c6.1-17.3 22.3-28.8 40.7-28.8h201.2v-43.7l-9.1-7.5c-19.6-16.2-30.8-40-30.8-65.3 0-46.6 37.9-84.5 84.5-84.5s84.5 37.9 84.5 84.5c0 25.3-11.2 49.1-30.8 65.3l-9.1 7.5v43.7h183.6c23.8 0 43.2 19.4 43.2 43.3V515c-14.6-5.3-30.2-8.1-46.1-8.1-74.2 0-134.5 60.3-134.5 134.5-0.1 74.1 60.2 134.4 134.4 134.4z" fill="#0C0C0C" p-id="2749"></path></svg>
