<svg t="1608362953485" class="icon" viewBox="0 0 1024 1024" version="1.1" xmlns="http://www.w3.org/2000/svg" p-id="26234" width="16" height="16"><path d="M512 32a480 480 0 1 0 480 480A480 480 0 0 0 512 32z m0 896a416 416 0 1 1 416-416 416 416 0 0 1-416 416z" fill="#1296db" p-id="26235"></path><path d="M718.72 414.4l-119.68-17.28a20.16 20.16 0 0 1-15.04-10.88l-53.76-109.12a20.16 20.16 0 0 0-36.16 0l-53.44 108.48a20.16 20.16 0 0 1-15.04 10.88l-119.68 17.28A20.16 20.16 0 0 0 294.08 448l86.72 84.48a20.16 20.16 0 0 1 5.76 17.92l-20.48 119.36a20.16 20.16 0 0 0 29.12 21.12l107.2-56.32a20.16 20.16 0 0 1 18.88 0l107.2 56.32a20.16 20.16 0 0 0 29.12-21.12l-20.48-119.36a20.16 20.16 0 0 1 5.76-17.92L729.92 448a20.16 20.16 0 0 0-11.2-33.6z" fill="#1296db" p-id="26236"></path></svg>
