<svg t="1609680344290" class="icon" viewBox="0 0 1024 1024" version="1.1" xmlns="http://www.w3.org/2000/svg" p-id="6281" width="16" height="16"><path d="M766.976 303.872H293.504c-43.456 0-75.072 40.768-74.88 87.552v79.872c0 84.032-17.792 166.4-51.2 238.08l-48.704 104.384c-5.76 11.904-9.088 25.6-9.536 39.552-1.472 48 30.464 90.56 75.008 90.56h344.832a44.16 44.16 0 0 0 21.184-5.504l7.488-4.544c12.672-8.32 26.048-20.352 39.744-36.608l9.408-11.84-1.92 7.04c-7.232 23.424 7.68 51.456 35.968 51.456h108.16c65.792 0 111.744-157.184 111.552-320l-0.32-36.736c-2.88-178.816-26.496-283.264-93.312-283.264z m-168.96 449.6l-0.256-1.088a55.552 55.552 0 0 1-1.664 16.384 167.36 167.36 0 0 1-20.48 48.384l-6.592 10.688c-17.28 27.072-33.024 43.456-45.76 52.032H184.192c-4.288 0-11.52-9.6-11.008-24.576a35.84 35.84 0 0 1 3.328-14.08l48.896-104.768c37.44-80.192 57.216-171.904 57.216-265.152v-80c-0.064-14.464 6.848-23.424 10.88-23.424h473.472c-1.984 0 8.192 19.776 15.872 60.992 8.96 48.384 13.632 116.736 13.76 195.072 0.064 68.672-9.472 138.048-25.216 191.872-7.04 24-14.912 43.392-22.4 55.872l-1.856 3.008c-2.56 4.224-2.944 5.184 1.92 5.184h-75.2l1.792-9.6c2.88-18.24 3.648-36.288 1.472-53.568a472.576 472.576 0 0 0-7.36-42.176l-4.544-19.008a340.928 340.928 0 0 0-5.952-20.416l-61.248 18.368z" fill="#666666" p-id="6282"></path><path d="M544 44.8A96 96 0 0 0 448 140.8v224h192V140.8A96 96 0 0 0 544 44.8z m5.76 64.512A32 32 0 0 1 576 140.8v159.936H512V140.8a32 32 0 0 1 32-32l5.76 0.512zM832 448v64H256V448z" fill="#666666" p-id="6283"></path></svg>
