<?xml version="1.0" standalone="no"?><!DOCTYPE svg PUBLIC "-//W3C//DTD SVG 1.1//EN" "http://www.w3.org/Graphics/SVG/1.1/DTD/svg11.dtd"><svg t="1603540888060" class="icon" viewBox="0 0 1024 1024" version="1.1" xmlns="http://www.w3.org/2000/svg" p-id="6867" xmlns:xlink="http://www.w3.org/1999/xlink" width="24" height="24"><defs><style type="text/css"></style></defs><path d="M113.777778 28.444444a85.333333 85.333333 0 0 0-85.333334 85.333334v796.444444a85.333333 85.333333 0 0 0 85.333334 85.333334h796.444444a85.333333 85.333333 0 0 0 85.333334-85.333334V113.777778a85.333333 85.333333 0 0 0-85.333334-85.333334H113.777778z m0-28.444444h796.444444a113.777778 113.777778 0 0 1 113.777778 113.777778v796.444444a113.777778 113.777778 0 0 1-113.777778 113.777778H113.777778a113.777778 113.777778 0 0 1-113.777778-113.777778V113.777778a113.777778 113.777778 0 0 1 113.777778-113.777778z" fill="#BFCBD9" p-id="6868"></path><path d="M434.830222 345.258667l-138.695111 120.974222a33.052444 33.052444 0 0 0 0 50.432l138.695111 120.462222c4.693333 3.896889 11.178667 4.835556 16.782222 2.446222a19.057778 19.057778 0 0 0 10.524445-14.250666v-74.410667c80.896 0 184.860444 0 269.738667 158.435556 3.697778 4.238222 7.111111 0 7.68-4.181334-9.955556-270.136889-199.936-293.262222-277.390223-293.262222v-50.432a19.370667 19.370667 0 0 0-8.817777-17.664 15.843556 15.843556 0 0 0-18.232889 0.853333l-0.284445 0.597334z" fill="#76838E" p-id="6869"></path></svg>
