<?xml version="1.0" standalone="no"?><!DOCTYPE svg PUBLIC "-//W3C//DTD SVG 1.1//EN" "http://www.w3.org/Graphics/SVG/1.1/DTD/svg11.dtd"><svg t="1594655199083" class="icon" viewBox="0 0 1024 1024" version="1.1" xmlns="http://www.w3.org/2000/svg" p-id="1158" width="16" height="16" xmlns:xlink="http://www.w3.org/1999/xlink"><defs><style type="text/css"></style></defs><path d="M496.079 862.078c-21.418-14.747-43.556-28.564-65.583-42.32-85.225-53.236-173.325-108.293-215.197-212.135-14.801-36.755-22.314-77.429-22.314-120.885V280.322c0-12.833 7.923-24.228 19.73-28.323l290.18-101.086a27.868 27.868 0 0 1 18.574 0l290.18 101.086c11.808 4.095 19.73 15.49 19.73 28.323v206.417c0 43.457-7.513 84.131-22.314 120.885-41.872 103.842-129.972 158.899-215.227 212.135-21.996 13.756-44.138 27.573-65.552 42.32a28.417 28.417 0 0 1-16.106 5.022 28.422 28.422 0 0 1-16.101-5.023zM251.021 301.794v184.945c0 35.561 6.005 68.488 17.874 97.948 34.592 85.776 110.88 133.447 191.693 183.931 17.239 10.766 34.562 21.621 51.594 32.87 17.036-11.249 34.359-22.103 51.597-32.87 80.812-50.484 157.1-98.154 191.693-183.931 11.869-29.46 17.874-62.387 17.874-97.948V301.794l-261.164-90.978-261.161 90.978z m261.553-54.034v504.952s-85.287-38.608-153.264-104.858c-67.981-66.254-70.448-147.619-70.448-147.619V323.986l223.712-76.226z" fill="" p-id="1159"></path></svg>