<svg t="1608362621547" class="icon" viewBox="0 0 1024 1024" version="1.1" xmlns="http://www.w3.org/2000/svg" p-id="14263" width="16" height="16"><path d="M350.315789 1002.442105c-16.168421 0-32.336842-5.389474-43.115789-10.778947-48.505263-21.557895-75.452632-64.673684-75.452632-118.568421l5.389474-59.284211c0-10.778947-5.389474-21.557895-10.778947-26.947368s-16.168421-10.778947-26.947369-10.778947l-59.28421 5.389473c-48.505263 0-97.010526-26.947368-118.568421-75.452631-21.557895-48.505263-5.389474-102.4 32.336842-134.736842l43.115789-32.336843c5.389474-10.778947 10.778947-21.557895 10.778948-32.336842s-5.389474-21.557895-10.778948-26.947368L53.894737 441.936842C16.168421 409.6 5.389474 355.705263 21.557895 307.2s64.673684-75.452632 118.568421-75.452632l59.28421 5.389474c10.778947 0 21.557895-5.389474 26.947369-10.778947 5.389474-10.778947 10.778947-21.557895 10.778947-32.336842l-5.389474-53.894737c0-48.505263 26.947368-97.010526 75.452632-118.568421 48.505263-16.168421 102.4-5.389474 134.736842 32.336842l37.726316 43.115789c16.168421 16.168421 43.115789 16.168421 59.28421 0l37.726316-43.115789c32.336842-37.726316 86.231579-48.505263 134.736842-32.336842 48.505263 21.557895 75.452632 64.673684 75.452632 118.568421l-5.389474 59.28421c0 10.778947 5.389474 21.557895 10.778948 26.947369 5.389474 5.389474 16.168421 10.778947 26.947368 10.778947l53.894737-5.389474c48.505263-5.389474 97.010526 26.947368 118.568421 75.452632 21.557895 48.505263 5.389474 102.4-32.336842 134.736842l-43.11579 37.726316c0 5.389474-5.389474 16.168421-5.389473 26.947368s5.389474 21.557895 10.778947 32.336842l43.115789 37.726316c37.726316 32.336842 48.505263 86.231579 32.336843 134.736842-21.557895 48.505263-64.673684 75.452632-118.568421 75.452632l-53.894737-5.389474c-10.778947 0-21.557895 5.389474-26.947369 10.778948-5.389474 5.389474-10.778947 16.168421-10.778947 26.947368l5.389474 59.284211c0 48.505263-26.947368 97.010526-75.452632 118.568421-48.505263 21.557895-102.4 5.389474-134.736842-32.336843l-43.11579-43.115789c-16.168421-16.168421-43.115789-16.168421-59.28421 0l-37.726316 43.115789c-21.557895 26.947368-53.894737 37.726316-91.621053 37.726316zM199.410526 700.631579c32.336842 0 64.673684 10.778947 86.231579 32.336842 21.557895 21.557895 37.726316 59.284211 32.336842 91.621053l-5.389473 53.894737c0 16.168421 10.778947 32.336842 21.557894 37.726315 16.168421 5.389474 32.336842 0 43.11579-10.778947l37.726316-43.11579c43.115789-48.505263 134.736842-48.505263 177.852631 0l37.726316 43.11579c10.778947 10.778947 26.947368 16.168421 43.11579 10.778947 16.168421-5.389474 26.947368-21.557895 21.557894-37.726315l-5.389473-53.894737c0-32.336842 10.778947-64.673684 32.336842-91.621053 21.557895-21.557895 53.894737-37.726316 91.621052-32.336842l59.284211 5.389474c16.168421 0 32.336842-10.778947 37.726316-21.557895 5.389474-16.168421 0-32.336842-10.778948-43.11579l-43.115789-37.726315c-26.947368-21.557895-37.726316-53.894737-37.726316-86.231579 0-32.336842 16.168421-64.673684 37.726316-86.231579l43.115789-37.726316c10.778947-10.778947 16.168421-26.947368 10.778948-43.11579-5.389474-16.168421-21.557895-26.947368-37.726316-21.557894l-53.894737 5.389473c-32.336842 0-64.673684-10.778947-91.621053-32.336842-16.168421-43.115789-26.947368-75.452632-26.947368-107.789473V134.736842c0-16.168421-10.778947-32.336842-21.557895-37.726316-16.168421-5.389474-32.336842 0-43.115789 10.778948l-37.726316 43.115789c-43.115789 48.505263-134.736842 48.505263-177.852632 0L382.652632 107.789474c-10.778947-10.778947-26.947368-16.168421-43.11579-10.778948-16.168421 5.389474-26.947368 21.557895-26.947368 37.726316l5.389473 53.894737c0 32.336842-10.778947 64.673684-32.336842 91.621053-26.947368 26.947368-59.284211 37.726316-91.621052 37.726315l-53.894737-5.389473c-21.557895 0-37.726316 10.778947-43.11579 26.947368-5.389474 16.168421 0 32.336842 10.778948 43.11579l43.115789 37.726315c26.947368 21.557895 37.726316 53.894737 37.726316 86.231579 0 32.336842-16.168421 64.673684-37.726316 86.231579l-43.115789 43.11579c-10.778947 10.778947-16.168421 26.947368-10.778948 43.115789 5.389474 16.168421 21.557895 26.947368 37.726316 21.557895H199.410526z" fill="#606266" p-id="14264"></path><path d="M506.610526 727.578947c-123.957895 0-220.968421-102.4-220.968421-220.968421s102.4-220.968421 220.968421-220.968421 220.968421 102.4 220.968421 220.968421-102.4 220.968421-220.968421 220.968421z m0-361.094736C431.157895 366.484211 366.484211 431.157895 366.484211 506.610526S425.768421 646.736842 506.610526 646.736842 646.736842 582.063158 646.736842 506.610526s-64.673684-140.126316-140.126316-140.126315z" fill="#606266" p-id="14265"></path></svg>
