<svg t="1608354381678" class="icon" viewBox="0 0 1024 1024" version="1.1" xmlns="http://www.w3.org/2000/svg" p-id="5599" width="16" height="16"><path d="M1024 524.8C1024 793.6 793.6 1024 499.2 1024 230.4 1024 0 793.6 0 524.8 0 230.4 230.4 0 499.2 0 793.6 0 1024 230.4 1024 524.8" fill="#8DD3A6" p-id="5600"></path><path d="M353.28 401.92c-15.36 0-30.72-12.8-30.72-28.16 0-15.36 12.8-28.16 30.72-28.16 15.36 0 30.72 12.8 30.72 28.16 0 15.36-12.8 28.16-30.72 28.16m151.04-58.88c15.36 0 30.72 12.8 30.72 28.16 0 15.36-12.8 28.16-30.72 28.16s-30.72-12.8-30.72-28.16c0-15.36 12.8-28.16 30.72-28.16m128 64h10.24c-15.36-87.04-104.96-151.04-212.48-151.04-117.76 0-215.04 79.36-215.04 179.2 0 58.88 33.28 110.08 84.48 143.36h2.56l-20.48 64 76.8-38.4h2.56c20.48 5.12 43.52 10.24 66.56 10.24h15.36c-5.12-12.8-7.68-28.16-7.68-43.52 2.56-92.16 89.6-163.84 197.12-163.84" fill="#FFFFFF" p-id="5601"></path><path d="M545.28 519.68c0-12.8 10.24-25.6 25.6-25.6 12.8 0 25.6 10.24 25.6 25.6 0 12.8-10.24 25.6-25.6 25.6-15.36-2.56-25.6-12.8-25.6-25.6m125.44 0c0-12.8 10.24-25.6 25.6-25.6 12.8 0 25.6 10.24 25.6 25.6 0 12.8-10.24 25.6-25.6 25.6-12.8-2.56-25.6-12.8-25.6-25.6M442.88 563.2c0 84.48 81.92 151.04 181.76 151.04 20.48 0 38.4-2.56 56.32-7.68h2.56l66.56 33.28-17.92-53.76h2.56c43.52-28.16 71.68-71.68 71.68-120.32 0-84.48-81.92-151.04-181.76-151.04-99.84-2.56-181.76 64-181.76 148.48" fill="#FFFFFF" p-id="5602"></path></svg>
